<?xml version="1.0" encoding="utf-8"?>
<!-- Generator: Adobe Illustrator 17.0.0, SVG Export Plug-In . SVG Version: 6.00 Build 0)  -->
<!DOCTYPE svg PUBLIC "-//W3C//DTD SVG 1.1//EN" "http://www.w3.org/Graphics/SVG/1.1/DTD/svg11.dtd">
<svg version="1.1" id="Layer_1" xmlns="http://www.w3.org/2000/svg" xmlns:xlink="http://www.w3.org/1999/xlink" x="0px" y="0px"
	 width="94.113px" height="81.514px" viewBox="0 0 94.113 81.514" enable-background="new 0 0 94.113 81.514" xml:space="preserve">
<g>
	<polygon points="58.26,81.35 60.512,80.294 62.2,78.706 64.733,75.001 67.828,69.975 69.799,65.212 72.049,61.772 73.457,59.126 
		76.836,57.274 81.057,55.422 85.559,52.777 90.063,48.807 91.752,46.164 92.498,43.842 93.5,40.075 93.875,37.248 93.75,34.777 
		93.75,33.6 92.625,35.012 91.496,37.248 90.496,38.897 89.618,40.781 88.743,42.783 87.489,45.254 86.36,46.784 85.235,48.081 
		84.106,48.906 82.354,49.964 79.85,51.024 79.223,51.142 80.35,47.965 81.604,44.666 82.856,40.9 83.731,38.663 84.735,35.483 
		85.61,32.541 86.36,29.951 87.239,26.654 87.616,24.297 87.991,21.59 88.366,18.177 88.366,14.879 88.366,11.936 87.864,9.344 
		86.989,5.46 86.36,3.577 85.485,1.811 84.858,0.398 84.608,1.456 84.233,2.869 84.106,3.931 83.731,5.812 83.731,6.991 
		83.731,8.404 83.731,9.815 83.731,11.936 83.731,13.584 83.606,14.879 83.606,16.41 83.606,17.94 83.606,20.413 83.481,22.532 
		83.231,24.415 82.729,27.712 81.854,30.538 81.227,32.422 80.35,33.6 79.598,31.716 78.846,28.889 77.721,26.181 76.844,23.591 
		75.465,20.532 73.963,18.411 72.209,16.293 70.08,14.644 67.951,13.701 65.811,13.031 64.946,12.76 66.45,14.055 67.576,15.231 
		68.828,16.762 70.33,18.88 72.084,21.944 72.961,24.533 73.586,27.124 73.963,30.302 74.088,33.835 73.963,36.778 73.713,39.016 
		73.338,41.488 72.461,44.785 71.707,47.965 69.328,53.615 68.578,55.382 67.45,57.501 66.323,60.208 64.194,63.153 62.44,65.388 
		60.061,68.097 59.184,68.802 56.805,63.035 55.303,59.149 54.176,57.03 53.299,54.793 52.17,52.791 50.92,50.553 49.791,49.023 
		47.663,46.432 46.41,44.903 44.657,42.9 42.905,41.251 40.526,39.603 38.395,38.663 36.892,38.308 37.644,39.485 38.519,40.429 
		40.273,42.31 42.403,44.195 43.655,45.725 45.284,48.55 46.913,51.142 48.289,54.085 49.039,56.085 50.293,58.678 51.168,61.033 
		51.67,63.035 52.297,65.742 52.797,68.921 53.299,70.923 53.674,73.042 54.176,75.044 55.176,77.046 55.93,78.694 56.805,80.224 	
		"/>
	<g>
		<path d="M58.474,81.416c10.178-4.775,9.294-20.004,19.33-24.407c4.078-1.789,10.09-4.305,12.618-8.26
			c3.061-4.788,3.691-9.687,3.691-15.246c0-0.194-0.627,0.032-0.693,0.114c-3.643,4.573-4.662,12.283-9.869,15.429
			c-0.605,0.366-3.855,1.717-3.886,1.802c0.545-1.536,1.092-3.068,1.67-4.591c1.157-3.043,2.276-6.14,3.256-9.243
			c3.941-12.483,6.112-24.355,0.628-36.714c-0.081-0.183-0.681-0.014-0.721,0.155c-2.345,9.928,0.045,20.293-3.004,30.141
			c-0.215,0.694-0.386,1.556-0.826,2.148c-0.634,0.851,0.02,0.699-0.333-0.183c-0.49-1.226-0.788-2.493-1.128-3.769
			c-0.671-2.522-1.95-5.181-3.023-7.564c-2.193-4.867-6.103-7.105-10.944-8.618c-0.114-0.036-0.808,0.13-0.635,0.28
			c7.022,6.046,9.424,13.9,9.039,22.95c-0.166,3.912-0.835,8.713-2.363,12.343c-1.606,3.814-3.013,8.894-5.448,12.262
			c-1.215,1.68-2.445,3.33-3.725,4.962c-0.683,0.871-1.472,1.676-2.203,2.508c-0.903,1.028-0.702-0.038-1.198-1.238
			c-1.653-4.007-3.47-7.956-5.047-11.978c-2.566-6.543-9.485-14.891-16.475-16.539c-0.086-0.02-0.766,0.077-0.657,0.248
			c2.374,3.71,5.99,6.076,8.223,9.948c2.002,3.472,3.914,7.017,5.316,10.79c2.54,6.835,1.64,17.525,7.852,22.336
			c0.17,0.132,0.817-0.152,0.68-0.258c-5.397-4.18-5.29-13.19-6.818-19.285c-1.495-5.964-5.129-14.411-9.789-18.534
			c-1.443-1.277-3.135-2.685-4.181-4.32c-0.611-0.956-1.06-0.587,0.289-0.269c1.008,0.238,2.08,0.915,2.923,1.499
			c3.172,2.198,5.446,5.21,7.876,8.168c4.766,5.8,7.094,13.564,9.922,20.419c0.076,0.184,0.545,0.007,0.643-0.072
			c5.702-4.585,8.656-11.552,11.411-18.095c2.997-7.117,4.115-14.912,3.205-22.586c-0.413-3.483-1.611-6.856-3.646-9.725
			c-1.131-1.595-2.293-3.082-3.646-4.494c-0.699-0.729-2.427-1.106-0.939-0.64c0.991,0.31,1.923,0.617,2.871,1.037
			c7.341,3.253,8.625,12.756,11.267,19.374c0.077,0.193,0.608,0,0.693-0.114c4.173-5.605,2.782-13.564,3.409-20.057
			c0.312-3.237-0.268-6.43,0.375-9.653c0.143-0.718,0.215-1.395,0.405-2.109c0.327-1.231-0.313-1.133,0.253,0.144
			c0.972,2.191,1.623,4.178,2.152,6.526c3.262,14.477-3.67,29.403-8.41,42.766c-0.048,0.135,0.241,0.106,0.297,0.095
			c5.947-1.12,8.613-5.852,10.953-10.868c0.819-1.755,1.821-3.395,2.694-5.125c0.66-1.308,0.58-1.771,0.58-0.429
			c0,1.163,0.15,2.267-0.004,3.428c-0.469,3.531-1.303,8.452-4.121,10.935c-3.421,3.015-6.694,5.363-10.897,7.206
			c-3.249,1.425-5.019,2.274-6.676,5.387c-1.656,3.111-3.182,6.517-5.023,9.506c-2.408,3.909-4.33,7.935-8.621,9.948
			C57.61,81.49,58.284,81.505,58.474,81.416z"/>
	</g>
</g>
<g>
	<polygon points="35.857,81.233 33.605,80.175 31.917,78.587 29.385,74.886 26.288,69.858 24.318,65.094 22.066,61.656 
		20.659,59.009 17.283,57.159 13.06,55.304 8.559,52.661 4.055,48.692 2.366,46.045 1.62,43.724 0.617,39.959 0.243,37.133 
		0.368,34.659 0.368,33.481 1.494,34.893 2.622,37.133 3.623,38.781 4.5,40.663 5.376,42.665 6.629,45.137 7.756,46.668 
		8.883,47.965 10.011,48.788 11.765,49.846 14.268,50.909 14.894,51.024 13.767,47.848 12.516,44.549 11.262,40.781 10.386,38.544 
		9.384,35.365 8.507,32.422 7.756,29.831 6.879,26.535 6.503,24.18 6.127,21.473 5.751,18.059 5.751,14.762 5.751,11.818 
		6.252,9.226 7.13,5.342 7.756,3.458 8.633,1.693 9.26,0.28 9.51,1.338 9.884,2.752 10.011,3.813 10.386,5.697 10.386,6.872 
		10.386,8.286 10.386,9.699 10.386,11.818 10.386,13.466 10.511,14.762 10.511,16.293 10.511,17.824 10.511,20.294 10.637,22.413 
		10.887,24.297 11.388,27.594 12.264,30.42 12.891,32.305 13.767,33.481 14.519,31.598 15.271,28.772 16.397,26.063 17.273,23.473 
		18.652,20.413 20.153,18.295 21.909,16.174 24.037,14.526 26.165,13.584 28.307,12.913 29.172,12.641 27.668,13.938 26.541,15.114 
		25.289,16.645 23.787,18.765 22.033,21.828 21.156,24.415 20.529,27.005 20.153,30.185 20.03,33.717 20.153,36.66 20.405,38.897 
		20.78,41.369 21.657,44.666 22.409,47.848 24.788,53.496 25.541,55.264 26.668,57.383 27.796,60.089 29.923,63.035 31.677,65.27 
		34.056,67.979 34.932,68.684 37.312,62.915 38.814,59.03 39.942,56.911 40.819,54.674 41.948,52.672 43.199,50.435 44.326,48.906 
		46.456,46.314 47.707,44.785 49.461,42.783 51.213,41.133 53.594,39.485 55.723,38.544 57.225,38.192 56.475,39.366 55.598,40.31 
		53.844,42.196 51.715,44.078 50.463,45.609 48.836,48.434 47.207,51.024 45.828,53.968 45.078,55.969 43.825,58.559 42.948,60.914 
		42.447,62.915 41.821,65.624 41.321,68.802 40.819,70.804 40.444,72.925 39.942,74.925 38.941,76.929 38.189,78.575 37.312,80.106 
			"/>
	<g>
		<path d="M36.065,80.983c-7.216-3.392-9.16-12.606-13.221-18.808c-0.667-1.018-1.121-2.949-2.157-3.517
			c-1.611-0.883-3.179-1.743-4.859-2.48c-4.037-1.773-7.238-3.948-10.523-6.843c-2.607-2.297-3.917-6.378-4.366-9.767
			c-0.213-1.609,0.117-4.646-0.611-5.559c1.201,1.505,2.253,3.411,3.069,5.163c2.472,5.304,4.929,10.936,11.373,12.123
			c0.178,0.033,0.572-0.124,0.486-0.368C10.675,38.02,3.515,22.931,6.684,8.913c0.527-2.332,1.001-4.567,2.069-6.717
			c0.142-0.269,0.272-0.544,0.39-0.824c0.487-0.71,0.446-0.865-0.12-0.466C9.217,1.731,9.484,2.537,9.585,3.38
			c0.408,3.407,0.111,6.785,0.438,10.184c0.626,6.494-0.765,14.475,3.413,20.079c0.156,0.21,0.586,0.115,0.679-0.116
			c2.614-6.541,3.883-16.036,11.149-19.25c0.911-0.403,1.827-0.704,2.777-1.003c1.402-0.44,0.23-0.239-0.615,0.49
			c-1.472,1.27-2.595,2.984-3.709,4.556c-2.053,2.898-3.272,6.312-3.688,9.829c-0.86,7.277-0.001,15.005,2.855,21.783
			c2.875,6.825,5.811,14.174,11.77,18.965c0.177,0.143,0.54,0.039,0.626-0.168c2.714-6.579,4.933-14.333,9.509-19.904
			c2.533-3.083,4.901-6.298,8.209-8.589c0.81-0.561,1.654-0.927,2.555-1.325c1.382-0.611,1.348-0.805,0.617,0.339
			c-1.08,1.69-2.988,3.142-4.476,4.456c-4.213,3.724-7.842,12.149-9.193,17.544c-1.539,6.149-1.471,15.614-6.887,19.808
			c-0.389,0.301,0.192,0.572,0.485,0.346c6.137-4.753,4.866-14.19,7.333-20.814c1.512-4.062,3.274-8.173,5.582-11.843
			c2.458-3.909,6.063-6.605,8.515-10.444c0.179-0.279-0.118-0.43-0.374-0.37c-7.112,1.67-12.326,8.963-15.732,15.004
			c-2.004,3.554-3.418,7.407-4.973,11.176c-0.539,1.308-1.079,2.615-1.618,3.923c-0.237,0.576-0.968-0.815-1.635-1.576
			c-1.425-1.623-2.742-3.312-4.007-5.063c-4.694-6.498-7.658-15.804-8.549-23.719c-1.076-9.557,1.338-18.456,8.773-24.867
			c0.283-0.244-0.007-0.525-0.311-0.43c-4.429,1.39-8.744,3.426-10.798,7.984c-1.1,2.442-1.959,4.936-2.984,7.405
			c-0.482,1.16-0.766,2.34-1.09,3.557c-0.657,2.469-0.709,1.684-1.442-0.517c-3.316-9.968-0.783-20.537-3.166-30.629
			c-0.075-0.316-0.611-0.171-0.71,0.051C3.551,12.317,5.421,24.029,9.282,36.286c0.973,3.09,2.047,6.187,3.196,9.215
			c0.605,1.594,1.192,3.19,1.762,4.796c0.315,0.887,0.482,0.465-0.645-0.013c-0.845-0.359-1.642-0.706-2.429-1.181
			C5.495,45.682,4.635,38.254,0.699,33.319C0.536,33.115,0,33.205,0,33.506c0,5.04,0.334,10.035,3.129,14.416
			c2.656,4.162,7.896,6.83,12.284,8.757c3.203,1.407,4.58,2.478,6.446,5.329c1.7,2.596,2.878,5.076,4.066,7.947
			c1.831,4.427,5.372,9.482,9.724,11.528C35.961,81.63,36.485,81.181,36.065,80.983z"/>
	</g>
</g>
</svg>
