<?xml version="1.0" encoding="utf-8"?>
<!-- Generator: Adobe Illustrator 17.0.0, SVG Export Plug-In . SVG Version: 6.00 Build 0)  -->
<!DOCTYPE svg PUBLIC "-//W3C//DTD SVG 1.1//EN" "http://www.w3.org/Graphics/SVG/1.1/DTD/svg11.dtd">
<svg version="1.1" id="Layer_1" xmlns="http://www.w3.org/2000/svg" xmlns:xlink="http://www.w3.org/1999/xlink" x="0px" y="0px"
	 width="548px" height="548px" viewBox="-73.533 -88.479 548 548" enable-background="new -73.533 -88.479 548 548"
	 xml:space="preserve">
<circle fill="#FFFFFF" stroke="#FFFFFF" stroke-miterlimit="10" cx="200.467" cy="185.521" r="273.5"/>
<path display="none" d="M295.658,71.663c0.361-1.907,2.991-1.512,2.991,0c27.581,44.478,0.624,111.048-18.08,146.223
	c25.28-6.87,34.814-29.521,42.21-54.275c11.539,34.846-21.631,62.296-49.738,72.323c-14.333,19.889-21.993,46.451-37.706,64.86
	c-18.311-9.402-16.634-33.729-21.105-51.251c-7.824-30.704-27.976-54.637-46.714-72.388c16.273-6.64,24.359,22.256,33.137,22.65
	c11.736,0.526,13.413-26.332,34.682-22.65c2.334,7.101-22.585,18.048-27.121,28.666c8.81,20.875,20.25,38.988,24.096,64.794
	c16.634-28.075,47.404-70.088,42.243-116.013c-2.63-23.439-16.075-29.685-25.642-48.292c24.754,8.383,35.011,31.329,37.674,61.836
	C301.773,148.62,300.786,102.103,295.658,71.663z"/>
<path display="none" d="M105.68,70.15c0.329,29.258-4.866,71.863,9.04,95.006c7.43-25.773,12.59-53.815,40.731-58.844
	c-1.71,12.952-12.887,13.709-18.113,21.138c-29.356,41.816,13.742,108.484,31.658,140.207c8.252-14.432,10.059-35.208,19.626-48.292
	c16.404,10.651-2.564,34.879-6.049,51.251c-1.973,9.27,0.033,28.502-10.553,30.178c-10.98,1.742-18.442-20.185-22.617-28.699
	c-6.87-13.84-11.144-22.092-16.569-33.137c-22.486-8.679-38.232-24.063-51.251-42.21c-0.526-3.024,0.296-4.668,2.991-4.471
	c-7.627-4.537-10.717-19.626-7.528-30.179c8.679,1.874,8.777,12.327,9.04,22.617c9.862,12.755,18.409,26.825,34.682,33.17
	C105.647,181.133,73.661,111.736,105.68,70.15z"/>
<path display="none" d="M298.281,68.526c0.371-1.959,3.074-1.554,3.074,0c28.341,45.704,0.642,114.108-18.579,150.252
	c25.976-7.06,35.773-30.334,43.373-55.77c11.857,35.806-22.227,64.013-51.109,74.315c-14.728,20.437-22.599,47.731-38.745,66.647
	c-18.815-9.661-17.092-34.658-21.687-52.663c-8.039-31.55-28.746-56.142-48.001-74.383c16.721-6.823,25.031,22.869,34.05,23.274
	c12.059,0.541,13.782-27.058,35.638-23.274c2.398,7.296-23.207,18.545-27.868,29.456c9.053,21.45,20.808,40.063,24.76,66.58
	c17.092-28.848,48.71-72.019,43.407-119.209c-2.702-24.085-16.518-30.503-26.348-49.622c25.436,8.614,35.976,32.192,38.712,63.54
	C304.564,147.604,303.55,99.805,298.281,68.526z"/>
<path display="none" d="M103.068,66.972c0.338,30.064-5,73.843,9.289,97.623c7.634-26.483,12.937-55.297,41.853-60.466
	c-1.757,13.309-13.242,14.086-18.612,21.721c-30.165,42.968,14.12,111.473,32.53,144.07c8.479-14.829,10.337-36.178,20.167-49.622
	c16.856,10.944-2.635,35.84-6.216,52.663c-2.027,9.526,0.034,29.287-10.843,31.01c-11.282,1.79-18.95-20.741-23.24-29.49
	c-7.06-14.221-11.451-22.7-17.025-34.05c-23.105-8.918-39.286-24.726-52.663-43.373c-0.541-3.108,0.304-4.796,3.074-4.594
	c-7.837-4.662-11.012-20.167-7.735-31.01c8.918,1.925,9.019,12.667,9.289,23.24c10.134,13.107,18.917,27.564,35.638,34.083
	C103.034,181.012,70.167,109.703,103.068,66.972z"/>
<g>
	<polygon points="233.075,303.593 239.631,300.517 244.544,295.894 251.919,285.108 260.931,270.478 266.668,256.612 
		273.218,246.596 277.318,238.895 287.154,233.502 299.441,228.111 312.547,220.41 325.659,208.853 330.577,201.16 332.749,194.4 
		335.666,183.432 336.758,175.204 336.394,168.009 336.394,164.583 333.119,168.694 329.833,175.204 326.921,180.003 
		324.363,185.487 321.815,191.315 318.165,198.51 314.879,202.962 311.604,206.741 308.317,209.14 303.217,212.222 295.928,215.307 
		294.102,215.651 297.383,206.403 301.033,196.799 304.678,185.834 307.225,179.321 310.148,170.064 312.695,161.501 
		314.879,153.959 317.437,144.361 318.535,137.501 319.626,129.62 320.718,119.684 320.718,110.083 320.718,101.515 319.257,93.97 
		316.71,82.663 314.879,77.179 312.331,72.039 310.506,67.925 309.778,71.007 308.687,75.118 308.317,78.211 307.225,83.687 
		307.225,87.118 307.225,91.232 307.225,95.34 307.225,101.515 307.225,106.314 306.861,110.083 306.861,114.538 306.861,118.993 
		306.861,126.194 306.497,132.361 305.77,137.845 304.309,147.443 301.761,155.67 299.936,161.154 297.383,164.583 295.194,159.099 
		293.005,150.868 289.73,142.985 287.177,135.446 283.163,126.538 278.79,120.364 273.684,114.2 267.487,109.398 261.289,106.652 
		255.057,104.702 252.538,103.914 256.917,107.684 260.197,111.107 263.842,115.565 268.215,121.731 273.32,130.649 
		275.873,138.186 277.693,145.731 278.79,154.982 279.154,165.268 278.79,173.834 278.062,180.35 276.971,187.545 274.418,197.143 
		272.223,206.403 265.298,222.849 263.114,227.995 259.828,234.164 256.547,242.045 250.349,250.616 245.243,257.124 
		238.318,265.008 235.765,267.061 228.84,250.272 224.467,238.96 221.186,232.791 218.633,226.28 215.347,220.453 211.708,213.936 
		208.422,209.481 202.224,201.939 198.579,197.487 193.473,191.656 188.373,186.857 181.448,182.058 175.246,179.321 
		170.868,178.289 173.059,181.714 175.607,184.464 180.711,189.939 186.912,195.426 190.556,199.881 195.298,208.105 
		200.041,215.651 204.049,224.219 206.232,230.042 209.883,237.59 212.43,244.444 213.891,250.272 215.717,258.153 217.172,267.408 
		218.633,273.236 219.725,279.405 221.186,285.233 224.098,291.061 226.292,295.86 228.84,300.312 	"/>
	<g>
		<path d="M233.289,303.658c4.253-1.995,8.845-3.772,11.639-7.859c2.759-4.036,5.656-8.001,8.221-12.164
			c2.857-4.638,6.514-9.285,8.601-14.327c2.147-5.189,3.895-10.641,6.975-15.351c3.229-4.937,6.12-9.802,8.892-15.008
			c0.875-1.643,6.046-3.35,7.699-4.256c2.214-1.214,4.491-2.195,6.805-3.21c9.543-4.187,18.393-9.005,26.225-15.908
			c3.596-3.17,7.039-5.788,9.608-9.807c2.663-4.166,4.244-8.002,5.523-12.81c1.351-5.081,2.59-9.894,3.28-15.096
			c0.589-4.442,0-8.898,0-13.375c0-0.194-0.627,0.032-0.693,0.114c-6.45,8.096-10.023,17.739-14.668,26.895
			c-2.629,5.182-5.273,9.668-9.086,14.068c-3.711,4.281-9.529,6.687-14.622,8.843c-0.201,0.085-3.181,1.06-3.184,1.069
			c0.478-1.348,0.957-2.696,1.435-4.044c0.867-2.445,1.729-4.888,2.651-7.313c2.136-5.62,4.092-11.251,5.988-16.957
			c3.266-9.826,6.684-19.521,9.569-29.488c4.351-15.031,6.934-30.328,6.934-46.001c0-3.346,0.601-7.147-0.029-10.401
			c-0.725-3.744-1.45-7.477-2.288-11.197c-1.806-8.015-4.576-14.765-7.895-22.244c-0.081-0.183-0.681-0.014-0.721,0.155
			c-1.227,5.195-2.2,10.341-3.243,15.574c-0.81,4.064-0.041,9.059-0.041,13.213c0,10.501,0.127,21.207-0.492,31.691
			c-0.67,11.352-3.154,21.816-6.731,32.562c-0.397,1.192-1.7,2.384-2.446,3.385c0.593-0.796-0.55-2.684-1.07-3.986
			c-1.098-2.75-1.7-5.681-2.461-8.54c-1.379-5.185-3.994-10.244-5.725-15.357c-2.837-8.376-7.655-14.9-13.224-21.622
			c-5.417-6.539-14.157-8.726-21.881-11.141c-0.114-0.036-0.808,0.13-0.635,0.28c8.65,7.448,14.644,16.02,20.288,25.88
			c5.133,8.966,5.801,21.196,6.157,31.258c0.403,11.392-0.999,22.539-3.923,33.532c-1.164,4.377-1.725,9.06-3.481,13.231
			c-2.288,5.433-4.564,10.871-6.867,16.297c-2.199,5.183-4.935,10.057-7.102,15.261c-2.037,4.894-5.671,9.115-8.937,13.278
			c-3.41,4.345-6.892,9.465-11.196,12.925c-1.379,1.109-0.856,1.633-1.394,0.328c-0.545-1.322-1.09-2.643-1.635-3.965
			c-1.441-3.493-2.882-6.986-4.323-10.479c-1.737-4.211-2.901-8.861-5.033-12.871c-2.479-4.662-4.171-9.723-6.745-14.287
			c-2.524-4.475-4.824-9.084-7.876-13.222c-3.229-4.377-6.823-8.489-10.268-12.698c-7.812-9.543-16.442-17.485-28.701-20.374
			c-0.086-0.02-0.766,0.077-0.657,0.248c2.768,4.326,6.264,7.818,9.766,11.574c3.492,3.746,7.787,6.313,10.417,10.873
			c5.557,9.638,11.196,18.675,15.122,29.142c1.85,4.934,4.41,9.592,6.259,14.566c1.594,4.288,2.651,9.664,3.357,14.158
			c1.63,10.367,2.971,21.769,7.681,31.2c1.238,2.479,2.253,5.06,3.63,7.466c1.715,2.998,3.233,4.213,5.999,6.356
			c0.17,0.132,0.817-0.152,0.68-0.258c-2.255-1.747-4.069-2.997-5.487-5.475c-1.338-2.338-2.347-4.78-3.55-7.188
			c-2.569-5.144-3.997-9.832-4.999-15.491c-1.798-10.161-3.923-20.336-6.436-30.357c-1.303-5.196-3.972-10.093-6.288-14.881
			c-2.258-4.669-3.993-9.687-6.202-14.409c-2.198-4.699-5.699-9.225-8.306-13.747c-2.65-4.596-6.322-7.88-10.259-11.364
			c-3.773-3.338-7.514-7.445-10.225-11.681c-0.381-0.596-1.388-0.501-0.224-0.227c0.881,0.208,1.761,0.415,2.642,0.623
			c0.977,0.23,1.809,0.62,2.732,1.027c3.016,1.331,5.446,2.692,8.155,4.569c9.032,6.258,15.557,15.553,22.468,23.963
			c3.13,3.81,5.422,7.954,7.834,12.232c2.666,4.729,4.435,9.727,6.97,14.495c5.2,9.779,8.714,20.823,12.94,31.068
			c0.074,0.179,0.148,0.358,0.221,0.537c0.076,0.184,0.545,0.007,0.643-0.072c8.331-6.699,14.544-16.364,20.762-24.962
			c1.373-1.899,2.035-4.792,2.935-6.953c1.02-2.45,2.406-4.75,3.653-7.091c2.49-4.674,4.247-10.008,6.297-14.878
			c8.238-19.564,11.413-41.849,8.91-62.943c-1.228-10.352-4.283-20.527-10.373-29.114c-3.264-4.603-6.552-8.977-10.462-13.055
			c-0.729-0.76-1.54-1.419-2.338-2.107c-0.667-0.574-1.333-1.148-2-1.722c-0.457-0.393-1.505-0.296,0.072,0.198
			c2.513,0.786,5.235,1.344,7.635,2.408c9.889,4.382,18.178,12.039,22.703,22.078c2.259,5.012,3.868,10.146,5.969,15.203
			c2.15,5.176,3.242,10.592,5.298,15.74c0.638,1.597,1.275,3.195,1.913,4.792c0.077,0.193,0.608,0,0.693-0.114
			c6.224-8.36,7.498-19.87,8.839-29.977c1.33-10.02,1.035-20.682,1.035-30.772c0-10.137-0.736-20.497,1.888-30.376
			c0.316-1.191,0.635-2.379,0.918-3.578c0.072-0.304,0.144-0.608,0.215-0.912c0.422-0.717,0.301-0.951-0.364-0.701
			c0.335,0.756,0.671,1.511,1.006,2.267c1.028,2.317,2.531,4.558,3.328,6.947c1.816,5.441,3.031,10.903,4.293,16.502
			c4.473,19.854,0.667,42.712-4.918,62.007c-5.861,20.249-13.167,39.883-20.21,59.737c-0.048,0.135,0.241,0.106,0.297,0.095
			c9.839-1.853,17.84-8.348,23.604-16.156c2.965-4.016,4.821-9.057,6.813-13.613c1.959-4.483,4.529-8.501,6.722-12.846
			c1.505-2.98,2.955-5.371,5.034-7.981c0.694-0.871-0.181-0.383-0.181,0.36c0,0.761,0,1.522,0,2.284
			c0,1.445,0.134,2.898,0.207,4.341c0.274,5.411-0.763,10.664-2.147,15.871c-1.273,4.786-2.164,10.482-4.848,14.68
			c-1.319,2.063-2.514,4.891-4.365,6.523c-2.635,2.323-5.271,4.646-7.906,6.969c-8.319,7.333-18.099,11.966-28.191,16.393
			c-3.959,1.737-8.223,3.765-11.745,6.241c-1.441,1.013-2.54,4.709-3.364,6.258c-1.21,2.274-2.678,4.379-4.088,6.535
			c-3.177,4.859-5.183,9.618-7.413,15.008c-2.138,5.167-5.184,9.684-8.12,14.45c-2.872,4.663-5.98,9.147-9.072,13.668
			c-3.049,4.46-7.389,6.519-12.118,8.738C232.426,303.732,233.099,303.747,233.289,303.658z"/>
	</g>
</g>
<g>
	<polygon points="167.857,303.252 161.301,300.17 156.387,295.548 149.014,284.773 139.999,270.137 134.264,256.268 
		127.709,246.258 123.612,238.553 113.784,233.166 101.491,227.767 88.387,220.071 75.273,208.518 70.358,200.813 68.184,194.056 
		65.265,183.096 64.176,174.869 64.54,167.664 64.54,164.236 67.819,168.347 71.103,174.869 74.017,179.665 76.57,185.143 
		79.12,190.974 82.767,198.17 86.049,202.627 89.329,206.403 92.612,208.796 97.72,211.878 105.008,214.971 106.83,215.307 
		103.548,206.061 99.905,196.458 96.254,185.487 93.704,178.977 90.789,169.72 88.236,161.154 86.049,153.612 83.497,144.014 
		82.402,137.16 81.307,129.279 80.212,119.34 80.212,109.742 80.212,101.171 81.67,93.626 84.226,82.319 86.049,76.835 
		88.601,71.695 90.426,67.581 91.154,70.663 92.243,74.78 92.612,77.867 93.704,83.351 93.704,86.774 93.704,90.888 93.704,95.002 
		93.704,101.171 93.704,105.97 94.068,109.742 94.068,114.2 94.068,118.655 94.068,125.848 94.435,132.017 95.163,137.501 
		96.621,147.099 99.171,155.326 100.996,160.813 103.548,164.236 105.738,158.755 107.928,150.527 111.205,142.641 113.755,135.101 
		117.77,126.194 122.139,120.028 127.251,113.853 133.446,109.054 139.642,106.314 145.875,104.358 148.394,103.568 
		144.016,107.343 140.737,110.766 137.09,115.224 132.718,121.396 127.612,130.311 125.058,137.845 123.234,145.384 
		122.139,154.641 121.78,164.924 122.139,173.49 122.873,180.003 123.965,187.198 126.517,196.799 128.707,206.061 135.634,222.502 
		137.824,227.651 141.105,233.82 144.388,241.698 150.582,250.272 155.686,256.78 162.612,264.667 165.165,266.72 172.093,249.925 
		176.465,238.613 179.748,232.444 182.3,225.934 185.587,220.106 189.229,213.592 192.512,209.14 198.71,201.595 202.355,197.143 
		207.461,191.315 212.561,186.513 219.492,181.714 225.689,178.977 230.062,177.95 227.879,181.368 225.326,184.117 220.22,189.607 
		214.022,195.085 210.378,199.542 205.641,207.767 200.899,215.307 196.885,223.878 194.701,229.703 191.051,237.243 188.498,244.1 
		187.04,249.925 185.217,257.812 183.762,267.061 182.3,272.889 181.209,279.064 179.748,284.887 176.835,290.72 174.645,295.513 
		172.093,299.971 	"/>
	<g>
		<path d="M168.064,303.002c-5.033-2.366-9.273-4.586-12.498-9.3c-3.15-4.603-6.272-9.174-9.196-13.921
			c-3.141-5.1-6.038-9.81-8.318-15.327c-2.302-5.567-4.513-9.963-7.809-14.995c-1.215-1.856-2.358-3.655-3.398-5.61
			c-1.009-1.897-1.809-4.882-3.765-5.954c-4.905-2.689-9.683-5.241-14.796-7.487c-5.612-2.465-10.671-5.296-15.966-8.406
			c-4.756-2.793-8.555-6.465-12.703-10.119c-3.415-3.009-7.505-6.845-8.946-11.326c-1.725-5.364-3.223-10.731-4.674-16.177
			c-1.354-5.082-1.417-10.226-1.154-15.428c0.051-1.014,0.066-2.014,0.066-3.03c0-1.466-0.138-0.824-0.558-1.35
			c0.5,0.626,0.999,1.253,1.499,1.879c1.839,2.306,2.992,4.742,4.324,7.387c2.153,4.276,4.656,8.247,6.586,12.66
			c1.904,4.354,3.705,9.152,6.529,12.987c5.696,7.736,13.654,14.292,23.419,16.091c0.178,0.033,0.572-0.124,0.486-0.368
			C93.194,175.777,73.253,132.458,82.896,89.8c1.25-5.531,2.455-10.814,4.988-15.916c0.488-0.982,0.981-1.957,1.426-2.959
			c0.367-0.828,0.734-1.655,1.102-2.483c0.418-0.943-0.33-0.689-0.092,0.32c0.564,2.389,1.399,4.764,1.69,7.2
			c0.611,5.11,1.326,9.774,1.326,14.95c0,4.959,0,9.917,0,14.876c0,9.71-0.12,19.877,1.16,29.522
			c1.303,9.815,2.678,20.982,8.72,29.087c0.156,0.21,0.586,0.115,0.679-0.116c3.937-9.853,6.25-20.354,10.625-30.061
			c4.374-9.705,10.678-21.225,20.95-25.768c2.756-1.219,5.404-2.247,8.279-3.149c1.151-0.361,2.302-0.722,3.454-1.084
			c1.04-0.326,1.034-0.899,0.396-0.349c-0.897,0.773-1.794,1.547-2.691,2.32c-3.526,3.04-6.571,6.729-9.257,10.52
			c-3.104,4.381-5.716,8.89-8.387,13.555c-2.433,4.248-3.261,10.443-4.398,15.144c-2.462,10.179-1.775,22.092-0.614,32.398
			c0.642,5.696,1.77,11.07,3.241,16.6c1.164,4.377,1.718,9.063,3.476,13.234c4.472,10.613,9.555,20.954,13.973,31.554
			c3.952,9.482,12.549,17.901,19.26,25.545c0.741,0.844,1.81,1.49,2.684,2.193c0.177,0.143,0.54,0.039,0.626-0.168
			c2.236-5.419,4.471-10.838,6.707-16.258c1.767-4.282,3.016-8.884,5.193-12.976c5.104-9.594,8.883-19.437,15.405-28.279
			c5.984-8.113,13.22-17.882,21.551-23.65c2.341-1.621,4.544-3.338,7.149-4.489c1.613-0.712,7.695-2.423,8.119-3.087
			c-2.706,4.235-6.276,8.417-10.054,11.756c-3.633,3.211-7.584,6.295-10.045,10.569c-2.882,5.004-5.842,9.911-8.917,14.799
			c-2.707,4.305-4.426,9.596-6.206,14.343c-1.849,4.932-4.414,9.589-6.265,14.56c-1.559,4.186-2.629,9.513-3.319,13.901
			c-0.804,5.108-2.033,10.067-2.929,15.133c-1.831,10.359-5.126,22.896-13.753,29.578c-0.178,0.138-0.356,0.276-0.535,0.414
			c-0.389,0.301,0.192,0.572,0.485,0.346c1.325-1.026,3.612-2.135,4.451-3.599c1.571-2.745,2.976-5.434,4.29-8.31
			c2.047-4.479,3.981-8.205,4.85-13.118c1.803-10.198,3.714-20.494,6.231-30.547c1.448-5.783,3.714-11.049,6.304-16.398
			c2.304-4.758,4.067-9.79,6.318-14.595c2.082-4.445,5.123-8.483,7.578-12.745c3.16-5.487,6.768-9.405,11.504-13.591
			c4.055-3.584,7.839-7.911,10.743-12.457c0.179-0.279-0.118-0.43-0.374-0.37c-10.004,2.349-18.02,8.01-24.758,15.701
			c-7.089,8.091-14.167,16.241-19.427,25.648c-5.174,9.254-9.49,19.006-13.314,28.9c-2,5.174-4.189,10.276-6.304,15.403
			c-1.291,3.129-0.807,3.94-3.326,1.072c-2.183-2.487-4.367-4.973-6.55-7.46c-3.495-3.981-6.538-8.419-9.636-12.708
			c-3.102-4.295-4.62-9.419-7.107-14.095c-5.157-9.696-9.604-20.383-12.125-31.051c-1.193-5.047-2.814-9.979-3.592-15.111
			c-0.908-5.983-1.406-11.891-1.659-17.936c-0.451-10.755,1.036-21.756,4.486-31.933c4.018-11.849,12.585-22.305,21.954-30.383
			c0.283-0.244-0.007-0.525-0.311-0.43c-5.129,1.609-9.983,3.284-14.898,5.458c-4.451,1.969-7.91,6.697-10.902,10.312
			c-6.866,8.294-9.445,18.166-13.495,27.912c-2.141,5.152-3.19,10.592-5.262,15.777c-0.514,1.285-0.321,0.726-0.031,1.115
			c-0.469-0.629-0.937-1.257-1.406-1.886c-0.887-1.19-1.264-2.156-1.734-3.57c-0.962-2.893-1.87-5.799-2.773-8.711
			c-3.085-9.952-3.389-20.993-3.389-31.334c0-8.912-0.364-17.785-0.364-26.705c0-8.428-1.348-16.001-3.283-24.194
			c-0.075-0.316-0.611-0.171-0.71,0.051c-2.188,4.932-4.495,9.61-6.201,14.738c-1.603,4.819-2.339,10.153-3.305,15.15
			c-1.99,10.299-0.77,21.594,0.372,31.953c2.393,21.706,10.232,42.038,17.075,62.604c2.513,7.552,5.443,14.96,8.106,22.462
			c0.395,1.113,0.663,0.563-0.523,0.345c-1.078-0.198-2.13-0.806-3.13-1.23c-1.974-0.838-3.963-1.583-5.8-2.692
			c-3.8-2.293-6.857-4.444-9.781-7.81c-4.876-5.614-7.413-12.541-10.512-19.192c-3.19-6.846-6.809-13.896-11.51-19.789
			c-0.162-0.203-0.699-0.114-0.699,0.187c0,5.188-0.434,10.138,0.249,15.292c0.66,4.989,1.91,9.963,3.452,14.757
			c1.791,5.568,3.908,9.415,7.07,14.369c1.018,1.595,3.404,3.004,4.809,4.242c2.636,2.322,5.272,4.645,7.907,6.967
			c3.768,3.32,9.149,5.505,13.482,8.05c4.123,2.421,8.975,3.582,13.175,5.885c2.881,1.579,5.761,3.158,8.642,4.737
			c1.843,1.01,3.208,5.581,4.193,7.432c2.338,4.396,5.806,8.086,7.718,12.711c1.702,4.117,3.03,8.725,5.373,12.528
			c2.814,4.568,5.627,9.135,8.441,13.703c2.13,3.458,4.59,8.159,7.541,10.934c1.418,1.334,3.119,3.728,4.87,4.552
			c2.185,1.027,4.37,2.055,6.556,3.082C167.961,303.649,168.485,303.199,168.064,303.002z"/>
	</g>
</g>
</svg>
