<?xml version="1.0" encoding="utf-8"?>
<!-- Generator: Adobe Illustrator 17.0.0, SVG Export Plug-In . SVG Version: 6.00 Build 0)  -->
<!DOCTYPE svg PUBLIC "-//W3C//DTD SVG 1.1//EN" "http://www.w3.org/Graphics/SVG/1.1/DTD/svg11.dtd">
<svg version="1.1" id="Layer_1" xmlns="http://www.w3.org/2000/svg" xmlns:xlink="http://www.w3.org/1999/xlink" x="0px" y="0px"
	 width="548px" height="548px" viewBox="-73.533 -88.479 548 548" enable-background="new -73.533 -88.479 548 548"
	 xml:space="preserve">
<circle fill="#FFFFFF" stroke="#FFFFFF" stroke-miterlimit="10" cx="200.467" cy="185.521" r="273.5"/>
<path d="M320.666,41.75c0.456-2.408,3.777-1.91,3.777,0c34.827,56.163,0.788,140.222-22.83,184.638
	c31.921-8.675,43.96-37.277,53.3-68.534c14.57,44.001-27.314,78.662-62.805,91.323c-18.098,25.114-27.77,58.654-47.612,81.9
	c-23.121-11.872-21.004-42.59-26.65-64.715c-9.879-38.771-35.325-68.991-58.986-91.406c20.548-8.385,30.759,28.103,41.843,28.6
	c14.819,0.664,16.936-33.25,43.793-28.6c2.947,8.966-28.518,22.79-34.246,36.197c11.125,26.359,25.57,49.231,30.427,81.817
	c21.004-35.45,59.858-88.501,53.34-146.491c-3.321-29.597-20.299-37.484-32.378-60.979c31.258,10.585,44.209,39.559,47.571,78.081
	C328.387,138.926,327.141,80.188,320.666,41.75z"/>
<path d="M80.778,39.841c0.415,36.944-6.144,90.742,11.415,119.965c9.381-32.544,15.898-67.952,51.432-74.304
	c-2.159,16.355-16.272,17.31-22.872,26.691c-37.069,52.801,17.352,136.985,39.975,177.042
	c10.419-18.223,12.702-44.458,24.782-60.979c20.713,13.449-3.238,44.042-7.638,64.715c-2.491,11.706,0.042,35.99-13.325,38.107
	c-13.864,2.2-23.287-25.488-28.559-36.238c-8.675-17.476-14.072-27.895-20.921-41.842c-28.393-10.959-48.276-30.385-64.715-53.3
	c-0.664-3.819,0.374-5.894,3.777-5.645c-9.63-5.729-13.532-24.783-9.505-38.107c10.959,2.366,11.083,15.566,11.415,28.559
	c12.453,16.106,23.246,33.873,43.793,41.884C80.736,179.98,40.347,92.351,80.778,39.841z"/>
</svg>
