<?xml version="1.0" encoding="utf-8"?>
<!-- Generator: Adobe Illustrator 17.0.0, SVG Export Plug-In . SVG Version: 6.00 Build 0)  -->
<!DOCTYPE svg PUBLIC "-//W3C//DTD SVG 1.1//EN" "http://www.w3.org/Graphics/SVG/1.1/DTD/svg11.dtd">
<svg version="1.1" xmlns="http://www.w3.org/2000/svg" xmlns:xlink="http://www.w3.org/1999/xlink" x="0px" y="0px" width="548px"
	 height="548px" viewBox="-73.533 -88.479 548 548" enable-background="new -73.533 -88.479 548 548" xml:space="preserve">
<g id="Layer_1" display="none">
	<circle display="inline" fill="#FFFFFF" stroke="#FFFFFF" stroke-miterlimit="10" cx="200.467" cy="185.521" r="273.5"/>
	<path d="M295.658,71.663c0.361-1.907,2.991-1.512,2.991,0c27.581,44.478,0.624,111.048-18.08,146.223
		c25.28-6.87,34.814-29.521,42.21-54.275c11.539,34.846-21.631,62.296-49.738,72.323c-14.333,19.889-21.993,46.451-37.706,64.86
		c-18.311-9.402-16.634-33.729-21.105-51.251c-7.824-30.704-27.976-54.637-46.714-72.388c16.273-6.64,24.359,22.256,33.137,22.65
		c11.736,0.526,13.413-26.332,34.682-22.65c2.334,7.101-22.585,18.048-27.121,28.666c8.81,20.875,20.25,38.988,24.096,64.794
		c16.634-28.075,47.404-70.088,42.243-116.013c-2.63-23.439-16.075-29.685-25.642-48.292c24.754,8.383,35.011,31.329,37.674,61.836
		C301.773,148.62,300.786,102.103,295.658,71.663z"/>
	<path d="M105.68,70.15c0.329,29.258-4.866,71.863,9.04,95.006c7.43-25.773,12.59-53.815,40.731-58.844
		c-1.71,12.952-12.887,13.709-18.113,21.138c-29.356,41.816,13.742,108.484,31.658,140.207
		c8.252-14.432,10.059-35.208,19.626-48.292c16.404,10.651-2.564,34.879-6.049,51.251c-1.973,9.27,0.033,28.502-10.553,30.178
		c-10.98,1.742-18.442-20.185-22.617-28.699c-6.87-13.84-11.144-22.092-16.569-33.137c-22.486-8.679-38.232-24.063-51.251-42.21
		c-0.526-3.024,0.296-4.668,2.991-4.471c-7.627-4.537-10.717-19.626-7.528-30.179c8.679,1.874,8.777,12.327,9.04,22.617
		c9.862,12.755,18.409,26.825,34.682,33.17C105.647,181.133,73.661,111.736,105.68,70.15z"/>
	<path d="M298.281,68.526c0.371-1.959,3.074-1.554,3.074,0c28.341,45.704,0.642,114.108-18.579,150.252
		c25.976-7.06,35.773-30.334,43.373-55.77c11.857,35.806-22.227,64.013-51.109,74.315c-14.728,20.437-22.599,47.731-38.745,66.647
		c-18.815-9.661-17.092-34.658-21.687-52.663c-8.039-31.55-28.746-56.142-48.001-74.383c16.721-6.823,25.031,22.869,34.05,23.274
		c12.059,0.541,13.782-27.058,35.638-23.274c2.398,7.296-23.207,18.545-27.868,29.456c9.053,21.45,20.808,40.063,24.76,66.58
		c17.092-28.848,48.71-72.019,43.407-119.209c-2.702-24.085-16.518-30.503-26.348-49.622c25.436,8.614,35.976,32.192,38.712,63.54
		C304.564,147.604,303.55,99.805,298.281,68.526z"/>
	<path d="M103.068,66.972c0.338,30.064-5,73.843,9.289,97.623c7.634-26.483,12.937-55.297,41.853-60.466
		c-1.757,13.309-13.242,14.086-18.612,21.721c-30.165,42.968,14.12,111.473,32.53,144.07c8.479-14.829,10.337-36.178,20.167-49.622
		c16.856,10.944-2.635,35.84-6.216,52.663c-2.027,9.526,0.034,29.287-10.843,31.01c-11.282,1.79-18.95-20.741-23.24-29.49
		c-7.06-14.221-11.451-22.7-17.025-34.05c-23.105-8.918-39.286-24.726-52.663-43.373c-0.541-3.108,0.304-4.796,3.074-4.594
		c-7.837-4.662-11.012-20.167-7.735-31.01c8.918,1.925,9.019,12.667,9.289,23.24c10.134,13.107,18.917,27.564,35.638,34.083
		C103.034,181.012,70.167,109.703,103.068,66.972z"/>
	<g display="inline">
		<polygon points="233.075,303.593 239.631,300.517 244.544,295.894 251.919,285.108 260.931,270.478 266.668,256.612 
			273.218,246.596 277.318,238.895 287.154,233.502 299.441,228.111 312.547,220.41 325.659,208.853 330.577,201.16 332.749,194.4 
			335.666,183.432 336.758,175.204 336.394,168.009 336.394,164.583 333.119,168.694 329.833,175.204 326.921,180.003 
			324.363,185.487 321.815,191.315 318.165,198.51 314.879,202.962 311.604,206.741 308.317,209.14 303.217,212.222 
			295.928,215.307 294.102,215.651 297.383,206.403 301.033,196.799 304.678,185.834 307.225,179.321 310.148,170.064 
			312.695,161.501 314.879,153.959 317.437,144.361 318.535,137.501 319.626,129.62 320.718,119.684 320.718,110.083 
			320.718,101.515 319.257,93.97 316.71,82.663 314.879,77.179 312.331,72.039 310.506,67.925 309.778,71.007 308.687,75.118 
			308.317,78.211 307.225,83.687 307.225,87.118 307.225,91.232 307.225,95.34 307.225,101.515 307.225,106.314 306.861,110.083 
			306.861,114.538 306.861,118.993 306.861,126.194 306.497,132.361 305.77,137.845 304.309,147.443 301.761,155.67 
			299.936,161.154 297.383,164.583 295.194,159.099 293.005,150.868 289.73,142.985 287.177,135.446 283.163,126.538 
			278.79,120.364 273.684,114.2 267.487,109.398 261.289,106.652 255.057,104.702 252.538,103.914 256.917,107.684 260.197,111.107 
			263.842,115.565 268.215,121.731 273.32,130.649 275.873,138.186 277.693,145.731 278.79,154.982 279.154,165.268 278.79,173.834 
			278.062,180.35 276.971,187.545 274.418,197.143 272.223,206.403 265.298,222.849 263.114,227.995 259.828,234.164 
			256.547,242.045 250.349,250.616 245.243,257.124 238.318,265.008 235.765,267.061 228.84,250.272 224.467,238.96 
			221.186,232.791 218.633,226.28 215.347,220.453 211.708,213.936 208.422,209.481 202.224,201.939 198.579,197.487 
			193.473,191.656 188.373,186.857 181.448,182.058 175.246,179.321 170.868,178.289 173.059,181.714 175.607,184.464 
			180.711,189.939 186.912,195.426 190.556,199.881 195.298,208.105 200.041,215.651 204.049,224.219 206.232,230.042 
			209.883,237.59 212.43,244.444 213.891,250.272 215.717,258.153 217.172,267.408 218.633,273.236 219.725,279.405 
			221.186,285.233 224.098,291.061 226.292,295.86 228.84,300.312 		"/>
		<g>
			<path d="M233.289,303.658c4.253-1.995,8.845-3.772,11.639-7.859c2.759-4.036,5.656-8.001,8.221-12.164
				c2.857-4.638,6.514-9.285,8.601-14.327c2.147-5.189,3.895-10.641,6.975-15.351c3.229-4.937,6.12-9.802,8.892-15.008
				c0.875-1.643,6.046-3.35,7.699-4.256c2.214-1.214,4.491-2.195,6.805-3.21c9.543-4.187,18.393-9.005,26.225-15.908
				c3.596-3.17,7.039-5.788,9.608-9.807c2.663-4.166,4.244-8.002,5.523-12.81c1.351-5.081,2.59-9.894,3.28-15.096
				c0.589-4.442,0-8.898,0-13.375c0-0.194-0.627,0.032-0.693,0.114c-6.45,8.096-10.023,17.739-14.668,26.895
				c-2.629,5.182-5.273,9.668-9.086,14.068c-3.711,4.281-9.529,6.687-14.622,8.843c-0.201,0.085-3.181,1.06-3.184,1.069
				c0.478-1.348,0.957-2.696,1.435-4.044c0.867-2.445,1.729-4.888,2.651-7.313c2.136-5.62,4.092-11.251,5.988-16.957
				c3.266-9.826,6.684-19.521,9.569-29.488c4.351-15.031,6.934-30.328,6.934-46.001c0-3.346,0.601-7.147-0.029-10.401
				c-0.725-3.744-1.45-7.477-2.288-11.197c-1.806-8.015-4.576-14.765-7.895-22.244c-0.081-0.183-0.681-0.014-0.721,0.155
				c-1.227,5.195-2.2,10.341-3.243,15.574c-0.81,4.064-0.041,9.059-0.041,13.213c0,10.501,0.127,21.207-0.492,31.691
				c-0.67,11.352-3.154,21.816-6.731,32.562c-0.397,1.192-1.7,2.384-2.446,3.385c0.593-0.796-0.55-2.684-1.07-3.986
				c-1.098-2.75-1.7-5.681-2.461-8.54c-1.379-5.185-3.994-10.244-5.725-15.357c-2.837-8.376-7.655-14.9-13.224-21.622
				c-5.417-6.539-14.157-8.726-21.881-11.141c-0.114-0.036-0.808,0.13-0.635,0.28c8.65,7.448,14.644,16.02,20.288,25.88
				c5.133,8.966,5.801,21.196,6.157,31.258c0.403,11.392-0.999,22.539-3.923,33.532c-1.164,4.377-1.725,9.06-3.481,13.231
				c-2.288,5.433-4.564,10.871-6.867,16.297c-2.199,5.183-4.935,10.057-7.102,15.261c-2.037,4.894-5.671,9.115-8.937,13.278
				c-3.41,4.345-6.892,9.465-11.196,12.925c-1.379,1.109-0.856,1.633-1.394,0.328c-0.545-1.322-1.09-2.643-1.635-3.965
				c-1.441-3.493-2.882-6.986-4.323-10.479c-1.737-4.211-2.901-8.861-5.033-12.871c-2.479-4.662-4.171-9.723-6.745-14.287
				c-2.524-4.475-4.824-9.084-7.876-13.222c-3.229-4.377-6.823-8.489-10.268-12.698c-7.812-9.543-16.442-17.485-28.701-20.374
				c-0.086-0.02-0.766,0.077-0.657,0.248c2.768,4.326,6.264,7.818,9.766,11.574c3.492,3.746,7.787,6.313,10.417,10.873
				c5.557,9.638,11.196,18.675,15.122,29.142c1.85,4.934,4.41,9.592,6.259,14.566c1.594,4.288,2.651,9.664,3.357,14.158
				c1.63,10.367,2.971,21.769,7.681,31.2c1.238,2.479,2.253,5.06,3.63,7.466c1.715,2.998,3.233,4.213,5.999,6.356
				c0.17,0.132,0.817-0.152,0.68-0.258c-2.255-1.747-4.069-2.997-5.487-5.475c-1.338-2.338-2.347-4.78-3.55-7.188
				c-2.569-5.144-3.997-9.832-4.999-15.491c-1.798-10.161-3.923-20.336-6.436-30.357c-1.303-5.196-3.972-10.093-6.288-14.881
				c-2.258-4.669-3.993-9.687-6.202-14.409c-2.198-4.699-5.699-9.225-8.306-13.747c-2.65-4.596-6.322-7.88-10.259-11.364
				c-3.773-3.338-7.514-7.445-10.225-11.681c-0.381-0.596-1.388-0.501-0.224-0.227c0.881,0.208,1.761,0.415,2.642,0.623
				c0.977,0.23,1.809,0.62,2.732,1.027c3.016,1.331,5.446,2.692,8.155,4.569c9.032,6.258,15.557,15.553,22.468,23.963
				c3.13,3.81,5.422,7.954,7.834,12.232c2.666,4.729,4.435,9.727,6.97,14.495c5.2,9.779,8.714,20.823,12.94,31.068
				c0.074,0.179,0.148,0.358,0.221,0.537c0.076,0.184,0.545,0.007,0.643-0.072c8.331-6.699,14.544-16.364,20.762-24.962
				c1.373-1.899,2.035-4.792,2.935-6.953c1.02-2.45,2.406-4.75,3.653-7.091c2.49-4.674,4.247-10.008,6.297-14.878
				c8.238-19.564,11.413-41.849,8.91-62.943c-1.228-10.352-4.283-20.527-10.373-29.114c-3.264-4.603-6.552-8.977-10.462-13.055
				c-0.729-0.76-1.54-1.419-2.338-2.107c-0.667-0.574-1.333-1.148-2-1.722c-0.457-0.393-1.505-0.296,0.072,0.198
				c2.513,0.786,5.235,1.344,7.635,2.408c9.889,4.382,18.178,12.039,22.703,22.078c2.259,5.012,3.868,10.146,5.969,15.203
				c2.15,5.176,3.242,10.592,5.298,15.74c0.638,1.597,1.275,3.195,1.913,4.792c0.077,0.193,0.608,0,0.693-0.114
				c6.224-8.36,7.498-19.87,8.839-29.977c1.33-10.02,1.035-20.682,1.035-30.772c0-10.137-0.736-20.497,1.888-30.376
				c0.316-1.191,0.635-2.379,0.918-3.578c0.072-0.304,0.144-0.608,0.215-0.912c0.422-0.717,0.301-0.951-0.364-0.701
				c0.335,0.756,0.671,1.511,1.006,2.267c1.028,2.317,2.531,4.558,3.328,6.947c1.816,5.441,3.031,10.903,4.293,16.502
				c4.473,19.854,0.667,42.712-4.918,62.007c-5.861,20.249-13.167,39.883-20.21,59.737c-0.048,0.135,0.241,0.106,0.297,0.095
				c9.839-1.853,17.84-8.348,23.604-16.156c2.965-4.016,4.821-9.057,6.813-13.613c1.959-4.483,4.529-8.501,6.722-12.846
				c1.505-2.98,2.955-5.371,5.034-7.981c0.694-0.871-0.181-0.383-0.181,0.36c0,0.761,0,1.522,0,2.284
				c0,1.445,0.134,2.898,0.207,4.341c0.274,5.411-0.763,10.664-2.147,15.871c-1.273,4.786-2.164,10.482-4.848,14.68
				c-1.319,2.063-2.514,4.891-4.365,6.523c-2.635,2.323-5.271,4.646-7.906,6.969c-8.319,7.333-18.099,11.966-28.191,16.393
				c-3.959,1.737-8.223,3.765-11.745,6.241c-1.441,1.013-2.54,4.709-3.364,6.258c-1.21,2.274-2.678,4.379-4.088,6.535
				c-3.177,4.859-5.183,9.618-7.413,15.008c-2.138,5.167-5.184,9.684-8.12,14.45c-2.872,4.663-5.98,9.147-9.072,13.668
				c-3.049,4.46-7.389,6.519-12.118,8.738C232.426,303.732,233.099,303.747,233.289,303.658z"/>
		</g>
	</g>
	<g display="inline">
		<polygon points="167.857,303.252 161.301,300.17 156.387,295.548 149.014,284.773 139.999,270.137 134.264,256.268 
			127.709,246.258 123.612,238.553 113.784,233.166 101.491,227.767 88.387,220.071 75.273,208.518 70.358,200.813 68.184,194.056 
			65.265,183.096 64.176,174.869 64.54,167.664 64.54,164.236 67.819,168.347 71.103,174.869 74.017,179.665 76.57,185.143 
			79.12,190.974 82.767,198.17 86.049,202.627 89.329,206.403 92.612,208.796 97.72,211.878 105.008,214.971 106.83,215.307 
			103.548,206.061 99.905,196.458 96.254,185.487 93.704,178.977 90.789,169.72 88.236,161.154 86.049,153.612 83.497,144.014 
			82.402,137.16 81.307,129.279 80.212,119.34 80.212,109.742 80.212,101.171 81.67,93.626 84.226,82.319 86.049,76.835 
			88.601,71.695 90.426,67.581 91.154,70.663 92.243,74.78 92.612,77.867 93.704,83.351 93.704,86.774 93.704,90.888 93.704,95.002 
			93.704,101.171 93.704,105.97 94.068,109.742 94.068,114.2 94.068,118.655 94.068,125.848 94.435,132.017 95.163,137.501 
			96.621,147.099 99.171,155.326 100.996,160.813 103.548,164.236 105.738,158.755 107.928,150.527 111.205,142.641 
			113.755,135.101 117.77,126.194 122.139,120.028 127.251,113.853 133.446,109.054 139.642,106.314 145.875,104.358 
			148.394,103.568 144.016,107.343 140.737,110.766 137.09,115.224 132.718,121.396 127.612,130.311 125.058,137.845 
			123.234,145.384 122.139,154.641 121.78,164.924 122.139,173.49 122.873,180.003 123.965,187.198 126.517,196.799 
			128.707,206.061 135.634,222.502 137.824,227.651 141.105,233.82 144.388,241.698 150.582,250.272 155.686,256.78 
			162.612,264.667 165.165,266.72 172.093,249.925 176.465,238.613 179.748,232.444 182.3,225.934 185.587,220.106 189.229,213.592 
			192.512,209.14 198.71,201.595 202.355,197.143 207.461,191.315 212.561,186.513 219.492,181.714 225.689,178.977 230.062,177.95 
			227.879,181.368 225.326,184.117 220.22,189.607 214.022,195.085 210.378,199.542 205.641,207.767 200.899,215.307 
			196.885,223.878 194.701,229.703 191.051,237.243 188.498,244.1 187.04,249.925 185.217,257.812 183.762,267.061 182.3,272.889 
			181.209,279.064 179.748,284.887 176.835,290.72 174.645,295.513 172.093,299.971 		"/>
		<g>
			<path d="M168.064,303.002c-5.033-2.366-9.273-4.586-12.498-9.3c-3.15-4.603-6.272-9.174-9.196-13.921
				c-3.141-5.1-6.038-9.81-8.318-15.327c-2.302-5.567-4.513-9.963-7.809-14.995c-1.215-1.856-2.358-3.655-3.398-5.61
				c-1.009-1.897-1.809-4.882-3.765-5.954c-4.905-2.689-9.683-5.241-14.796-7.487c-5.612-2.465-10.671-5.296-15.966-8.406
				c-4.756-2.793-8.555-6.465-12.703-10.119c-3.415-3.009-7.505-6.845-8.946-11.326c-1.725-5.364-3.223-10.731-4.674-16.177
				c-1.354-5.082-1.417-10.226-1.154-15.428c0.051-1.014,0.066-2.014,0.066-3.03c0-1.466-0.138-0.824-0.558-1.35
				c0.5,0.626,0.999,1.253,1.499,1.879c1.839,2.306,2.992,4.742,4.324,7.387c2.153,4.276,4.656,8.247,6.586,12.66
				c1.904,4.354,3.705,9.152,6.529,12.987c5.696,7.736,13.654,14.292,23.419,16.091c0.178,0.033,0.572-0.124,0.486-0.368
				C93.194,175.777,73.253,132.458,82.896,89.8c1.25-5.531,2.455-10.814,4.988-15.916c0.488-0.982,0.981-1.957,1.426-2.959
				c0.367-0.828,0.734-1.655,1.102-2.483c0.418-0.943-0.33-0.689-0.092,0.32c0.564,2.389,1.399,4.764,1.69,7.2
				c0.611,5.11,1.326,9.774,1.326,14.95c0,4.959,0,9.917,0,14.876c0,9.71-0.12,19.877,1.16,29.522
				c1.303,9.815,2.678,20.982,8.72,29.087c0.156,0.21,0.586,0.115,0.679-0.116c3.937-9.853,6.25-20.354,10.625-30.061
				c4.374-9.705,10.678-21.225,20.95-25.768c2.756-1.219,5.404-2.247,8.279-3.149c1.151-0.361,2.302-0.722,3.454-1.084
				c1.04-0.326,1.034-0.899,0.396-0.349c-0.897,0.773-1.794,1.547-2.691,2.32c-3.526,3.04-6.571,6.729-9.257,10.52
				c-3.104,4.381-5.716,8.89-8.387,13.555c-2.433,4.248-3.261,10.443-4.398,15.144c-2.462,10.179-1.775,22.092-0.614,32.398
				c0.642,5.696,1.77,11.07,3.241,16.6c1.164,4.377,1.718,9.063,3.476,13.234c4.472,10.613,9.555,20.954,13.973,31.554
				c3.952,9.482,12.549,17.901,19.26,25.545c0.741,0.844,1.81,1.49,2.684,2.193c0.177,0.143,0.54,0.039,0.626-0.168
				c2.236-5.419,4.471-10.838,6.707-16.258c1.767-4.282,3.016-8.884,5.193-12.976c5.104-9.594,8.883-19.437,15.405-28.279
				c5.984-8.113,13.22-17.882,21.551-23.65c2.341-1.621,4.544-3.338,7.149-4.489c1.613-0.712,7.695-2.423,8.119-3.087
				c-2.706,4.235-6.276,8.417-10.054,11.756c-3.633,3.211-7.584,6.295-10.045,10.569c-2.882,5.004-5.842,9.911-8.917,14.799
				c-2.707,4.305-4.426,9.596-6.206,14.343c-1.849,4.932-4.414,9.589-6.265,14.56c-1.559,4.186-2.629,9.513-3.319,13.901
				c-0.804,5.108-2.033,10.067-2.929,15.133c-1.831,10.359-5.126,22.896-13.753,29.578c-0.178,0.138-0.356,0.276-0.535,0.414
				c-0.389,0.301,0.192,0.572,0.485,0.346c1.325-1.026,3.612-2.135,4.451-3.599c1.571-2.745,2.976-5.434,4.29-8.31
				c2.047-4.479,3.981-8.205,4.85-13.118c1.803-10.198,3.714-20.494,6.231-30.547c1.448-5.783,3.714-11.049,6.304-16.398
				c2.304-4.758,4.067-9.79,6.318-14.595c2.082-4.445,5.123-8.483,7.578-12.745c3.16-5.487,6.768-9.405,11.504-13.591
				c4.055-3.584,7.839-7.911,10.743-12.457c0.179-0.279-0.118-0.43-0.374-0.37c-10.004,2.349-18.02,8.01-24.758,15.701
				c-7.089,8.091-14.167,16.241-19.427,25.648c-5.174,9.254-9.49,19.006-13.314,28.9c-2,5.174-4.189,10.276-6.304,15.403
				c-1.291,3.129-0.807,3.94-3.326,1.072c-2.183-2.487-4.367-4.973-6.55-7.46c-3.495-3.981-6.538-8.419-9.636-12.708
				c-3.102-4.295-4.62-9.419-7.107-14.095c-5.157-9.696-9.604-20.383-12.125-31.051c-1.193-5.047-2.814-9.979-3.592-15.111
				c-0.908-5.983-1.406-11.891-1.659-17.936c-0.451-10.755,1.036-21.756,4.486-31.933c4.018-11.849,12.585-22.305,21.954-30.383
				c0.283-0.244-0.007-0.525-0.311-0.43c-5.129,1.609-9.983,3.284-14.898,5.458c-4.451,1.969-7.91,6.697-10.902,10.312
				c-6.866,8.294-9.445,18.166-13.495,27.912c-2.141,5.152-3.19,10.592-5.262,15.777c-0.514,1.285-0.321,0.726-0.031,1.115
				c-0.469-0.629-0.937-1.257-1.406-1.886c-0.887-1.19-1.264-2.156-1.734-3.57c-0.962-2.893-1.87-5.799-2.773-8.711
				c-3.085-9.952-3.389-20.993-3.389-31.334c0-8.912-0.364-17.785-0.364-26.705c0-8.428-1.348-16.001-3.283-24.194
				c-0.075-0.316-0.611-0.171-0.71,0.051c-2.188,4.932-4.495,9.61-6.201,14.738c-1.603,4.819-2.339,10.153-3.305,15.15
				c-1.99,10.299-0.77,21.594,0.372,31.953c2.393,21.706,10.232,42.038,17.075,62.604c2.513,7.552,5.443,14.96,8.106,22.462
				c0.395,1.113,0.663,0.563-0.523,0.345c-1.078-0.198-2.13-0.806-3.13-1.23c-1.974-0.838-3.963-1.583-5.8-2.692
				c-3.8-2.293-6.857-4.444-9.781-7.81c-4.876-5.614-7.413-12.541-10.512-19.192c-3.19-6.846-6.809-13.896-11.51-19.789
				c-0.162-0.203-0.699-0.114-0.699,0.187c0,5.188-0.434,10.138,0.249,15.292c0.66,4.989,1.91,9.963,3.452,14.757
				c1.791,5.568,3.908,9.415,7.07,14.369c1.018,1.595,3.404,3.004,4.809,4.242c2.636,2.322,5.272,4.645,7.907,6.967
				c3.768,3.32,9.149,5.505,13.482,8.05c4.123,2.421,8.975,3.582,13.175,5.885c2.881,1.579,5.761,3.158,8.642,4.737
				c1.843,1.01,3.208,5.581,4.193,7.432c2.338,4.396,5.806,8.086,7.718,12.711c1.702,4.117,3.03,8.725,5.373,12.528
				c2.814,4.568,5.627,9.135,8.441,13.703c2.13,3.458,4.59,8.159,7.541,10.934c1.418,1.334,3.119,3.728,4.87,4.552
				c2.185,1.027,4.37,2.055,6.556,3.082C167.961,303.649,168.485,303.199,168.064,303.002z"/>
		</g>
	</g>
</g>
<g id="Layer_2">
	<g>
		<line fill="#FFFFFF" x1="515.627" y1="185.752" x2="-114.693" y2="185.752"/>
		<path fill="none" d="M-114.693,185.752"/>
		<path fill="none" d="M515.627,185.752"/>
		<path fill="#FFFFFF" stroke="#FFFFFF" stroke-width="5" d="M432.422,185.752c0,130.208-105.545,235.763-235.752,235.763
			c-130.206,0-235.756-105.555-235.756-235.763c0-130.204,105.55-235.75,235.756-235.75
			C326.877-49.998,432.422,55.549,432.422,185.752z"/>
		<path fill="#FFFFFF" d="M401.522,101.87C182.541,209.594-8.185,96.572-8.185,96.572l-22.953,10.596v61.812v15.896l457.379,1.758
			l8.834-26.488l-7.069-31.786l-15.885-33.551L401.522,101.87z"/>
		<path fill="none" stroke="#FFFFFF" d="M401.522,101.87C182.541,209.594-8.185,96.572-8.185,96.572l-22.953,10.596v61.812v15.896
			l457.379,1.758l8.834-26.488l-7.069-31.786l-15.885-33.551L401.522,101.87z"/>
		<path fill="#FFFFFF" d="M401.522,273.169C182.541,165.445-8.185,278.473-8.185,278.473l-22.953-10.603v-61.813v-15.888
			l457.379-1.758l8.834,26.48l-7.069,31.795l-15.885,33.545L401.522,273.169z"/>
		<path fill="none" stroke="#FFFFFF" d="M401.522,273.169C182.541,165.445-8.185,278.473-8.185,278.473l-22.953-10.603v-61.813
			v-15.888l457.379-1.758l8.834,26.48l-7.069,31.795l-15.885,33.545L401.522,273.169z"/>
		<rect x="-45.263" y="172.511" fill="#FFFFFF" width="482.689" height="35.315"/>
		<rect x="-45.263" y="172.511" fill="none" stroke="#FFFFFF" width="482.689" height="35.315"/>
		<polygon points="28.977,252.881 -15.425,274.021 -15.425,102.396 28.977,122.399 28.977,133.269 -4.326,118.395 -4.326,182.203 
			20.093,182.203 20.093,193.077 -4.326,193.077 -4.326,257.918 28.977,242.011 		"/>
		<polygon points="85.737,236.367 78.344,238.517 66.425,201.089 55.269,245.675 46.762,249.002 61.995,190.349 46.668,128.854 
			55.269,132.433 66.425,180.12 79.06,139.344 85.772,141.015 70.598,190.349 		"/>
		<polygon fill="none" stroke="#000000" points="85.737,236.367 78.344,238.517 66.425,201.089 55.269,245.675 46.762,249.002 
			61.995,190.349 46.668,128.854 55.269,132.433 66.425,180.12 79.06,139.344 85.772,141.015 70.598,190.349 		"/>
		<path d="M126.923,179.624c0,3.164-1.142,5.906-3.425,8.175c-2.283,2.28-5.009,3.427-8.181,3.427h-5.801v37.99l-5.8,1.31v-84.505
			l12.533,2.38c3.337,1.195,12.393-0.716,10.246,12.391c-0.522,3.19,0.239-4.18,0.239-1.01L126.923,179.624z M121.118,179.624
			v-14.512c0-1.617-0.172-1.41-0.102-3.124c0.355-8.938-3.956-7.33-5.603-7.926l-5.897-0.659v32.019h5.801
			c1.621,0,2.998-0.562,4.121-1.68C120.559,182.625,121.118,181.249,121.118,179.624z"/>
		<path fill="none" stroke="#000000" d="M126.923,179.624c0,3.164-1.142,5.906-3.425,8.175c-2.283,2.28-5.009,3.427-8.181,3.427
			h-5.801v37.99l-5.8,1.31v-84.505l12.533,2.38c3.337,1.195,12.393-0.716,10.246,12.391c-0.522,3.19,0.239-4.18,0.239-1.01
			L126.923,179.624z M121.118,179.624v-14.512c0-1.617-0.172-1.41-0.102-3.124c0.355-8.938-3.956-7.33-5.603-7.926l-5.897-0.659
			v32.019h5.801c1.621,0,2.998-0.562,4.121-1.68C120.559,182.625,121.118,181.249,121.118,179.624z"/>
		<g>
			<path d="M415.831,235.731c0,6.795-2.413,12.635-7.228,17.52c-4.819,4.889-10.574,7.332-17.265,7.332
				c-6.699,0-12.454-2.443-17.269-7.332c-4.819-4.885-7.224-10.725-7.224-17.52v-12.424h12.247v12.424
				c0,3.479,1.181,6.425,3.549,8.823c2.365,2.406,5.266,3.605,8.697,3.605c3.427,0,6.325-1.199,8.694-3.605
				c2.365-2.398,3.553-5.344,3.553-8.823v-14.908l-33.312-58.153c-1.958-2.979-3.105-6.708-3.427-11.181V136.33
				c0-6.791,2.406-12.631,7.224-17.52c4.815-4.883,10.57-7.33,17.269-7.33c6.691,0,12.446,2.446,17.265,7.33
				c4.815,4.889,7.228,10.729,7.228,17.52v12.426h-12.247V136.33c0-3.479-1.188-6.419-3.553-8.821
				c-2.369-2.4-5.266-3.605-8.694-3.605c-3.431,0-6.332,1.205-8.697,3.605c-2.369,2.402-3.549,5.342-3.549,8.821v14.911
				l33.553,58.398c1.632,3.479,2.694,7.124,3.187,10.933V235.731z"/>
		</g>
		<polygon points="296.115,231.356 272.903,226.726 272.903,148.647 296.115,143.636 296.115,149.355 278.713,152.816 
			278.713,185.416 291.47,185.416 291.47,191.226 278.713,191.226 278.713,221.818 296.115,225.412 		"/>
		<polygon fill="none" stroke="#000000" points="296.115,231.356 272.903,226.726 272.903,148.647 296.115,143.636 296.115,149.355 
			278.713,152.816 278.713,185.416 291.47,185.416 291.47,191.226 278.713,191.226 278.713,221.818 296.115,225.412 		"/>
		<polygon points="57.076,62.804 74.555,80.197 72.019,83.397 31.536,55.586 34.071,52.384 54.39,66.2 36.607,49.191 39.145,45.989 
			59.614,59.603 41.68,42.79 44.218,39.588 80.483,72.712 77.948,75.91 		"/>
		<path d="M103.857,50.495l-3.077,2.681l-9.582-7.898l-6.157,5.365l6.505,10.577L88.465,63.9L62.441,21.592l3.079-2.681
			L103.857,50.495z M88.02,42.629l-15.996-13.14l10.821,17.646L88.02,42.629z"/>
		<polygon points="102.826,-6.722 108.444,18.726 120.833,39.575 117.321,41.661 104.93,20.81 85.278,3.709 89.138,1.411 
			103.019,13.587 98.966,-4.428 		"/>
		<polygon points="137.749,4.338 142.598,28.509 138.713,29.762 120.537,-15.869 124.427,-17.116 133.629,5.659 128.315,-18.365 
			132.203,-19.611 141.638,3.089 136.087,-20.865 139.973,-22.109 151.694,25.589 147.808,26.835 		"/>
		<path d="M189.262,18.733l-4.051,0.504l-3.549-11.899l-8.105,1.016l-0.503,12.398l-4.049,0.514l2.008-49.632l4.054-0.503
			L189.262,18.733z M180.508,3.368l-5.938-19.834L173.7,4.214L180.508,3.368z"/>
		<path d="M220.271,20.097l-4.068-0.354l-2.124-22.727l-4.056-0.359l-1.962,22.38l-4.071-0.361l4.26-48.808l8.135,0.707
			c2.22,0.196,4.071,1.162,5.529,2.901c1.458,1.74,2.095,3.718,1.895,5.94l-0.885,10.174c-0.215,1.841-0.711,3.364-1.499,4.578
			c-0.792,1.221-1.873,2.171-3.253,2.872L220.271,20.097z M218.853-10.773l0.885-10.167c0.111-1.134-0.204-2.134-0.921-2.989
			c-0.714-0.853-1.654-1.336-2.776-1.429l-4.082-0.357l-1.591,18.307l4.063,0.357c1.14,0.096,2.136-0.213,2.998-0.935
			C218.283-8.697,218.761-9.631,218.853-10.773z"/>
		<path d="M252.729,19.549c-0.622,2.137-1.939,3.755-3.927,4.848c-1.995,1.092-4.06,1.321-6.199,0.699l-7.838-2.292l13.745-47.03
			l7.835,2.287c2.143,0.629,3.753,1.939,4.848,3.934c1.084,1.991,1.329,4.051,0.7,6.199L252.729,19.549z M248.806,18.402
			l9.163-31.355c0.322-1.096,0.218-2.136-0.326-3.111c-0.537-0.979-1.343-1.63-2.446-1.954l-3.923-1.149L239.82,20.028l3.923,1.148
			c1.099,0.318,2.139,0.213,3.12-0.324C247.84,20.315,248.487,19.497,248.806,18.402z"/>
		<path d="M314.879,58.559c-1.503,1.653-3.382,2.544-5.651,2.652c-2.272,0.111-4.237-0.587-5.888-2.084
			c-1.647-1.501-2.535-3.381-2.646-5.651c-0.111-2.27,0.585-4.226,2.091-5.883l21.925-24.204c1.495-1.653,3.386-2.537,5.659-2.648
			c2.261-0.115,4.227,0.581,5.881,2.084c1.658,1.499,2.532,3.381,2.65,5.648c0.107,2.27-0.577,4.234-2.087,5.883l-2.735,3.025
			l-3.031-2.739l2.742-3.022c0.766-0.853,1.129-1.837,1.073-2.944c-0.059-1.116-0.503-2.06-1.354-2.824
			c-0.848-0.775-1.825-1.129-2.942-1.075c-1.114,0.055-2.058,0.507-2.82,1.358L305.8,50.336c-0.766,0.846-1.125,1.83-1.073,2.946
			c0.056,1.109,0.507,2.053,1.354,2.824c0.848,0.768,1.832,1.127,2.946,1.064c1.11-0.048,2.054-0.505,2.824-1.347l2.746-3.024
			l3.024,2.737L314.879,58.559z"/>
		<path d="M335.542,83.8c-1.791,1.329-3.812,1.824-6.066,1.489c-2.239-0.346-4.02-1.404-5.352-3.201
			c-1.329-1.793-1.821-3.816-1.492-6.062c0.337-2.245,1.406-4.029,3.202-5.359l26.269-19.425c1.788-1.32,3.805-1.825,6.058-1.479
			c2.243,0.335,4.03,1.395,5.363,3.194c1.317,1.795,1.817,3.812,1.48,6.06c-0.337,2.243-1.41,4.034-3.19,5.364L335.542,83.8z
			 M333.114,80.519l26.269-19.423c0.918-0.679,1.466-1.571,1.621-2.676c0.171-1.105-0.089-2.115-0.77-3.037
			c-0.677-0.919-1.569-1.462-2.665-1.619c-1.118-0.174-2.132,0.081-3.035,0.764l-26.273,19.417
			c-0.922,0.684-1.462,1.573-1.625,2.677c-0.163,1.11,0.089,2.121,0.773,3.037c0.673,0.92,1.566,1.464,2.679,1.63
			C331.186,81.459,332.199,81.198,333.114,80.519z"/>
		<g>
			<path d="M295.223,24.899c0.126,0.105,0.163,0.191,0.059,0.316c-0.052,0.065-0.244,0.172-0.426,0.131l-1.81,0.122
				c-3.897,4.758-6.073,6.501-8.375,6.962c-0.1,0.452-0.118,0.864,0.233,1.153c0.577,0.472,1.732,0.298,2.269,0.096
				c0.229-0.081,0.418,0.076,0.233,0.3c-0.81,0.99-2.735,1.974-4.363,0.638c-0.703-0.576-1.036-1.275-1.11-2.03
				c-0.707-0.046-1.762-0.324-2.787-1.162c-3.194-2.617-3.161-6.432-0.44-9.756c2.461-3.001,5.074-3.845,7.853-4.506l1.262-0.302
				l0.729-1.538c0.773-1.662,1.932-3.86,3.66-5.968c2.039-2.493,4.93-3.22,6.814-1.677c1.691,1.386,1.591,3.597-0.241,5.833
				c-2.509,3.068-5.918,4.228-7.742,4.761l-0.914,0.265l-0.625,1.355c-1.429,3.048-3.379,7.319-4.238,9.928
				c1.425-0.435,5.977-4.821,5.622-6.604l-0.378-1.486c-0.052-0.202-0.096-0.342-0.019-0.439c0.078-0.094,0.226-0.083,0.359,0.022
				L295.223,24.899z M286.511,19.634c-1.728,0.291-3.501,1.403-5.174,3.447c-2.302,2.811-2.339,5.661-0.936,6.812
				c0.577,0.472,1.21,0.672,1.758,0.588c0.659-2.561,2.272-6.416,3.483-9.001L286.511,19.634z M291.974,15.833
				c1.573-0.418,3.701-1.715,5.141-3.472c0.944-1.151,1.614-2.361,0.625-3.174c-1.503-1.229-3.797,1.108-5.315,4.4l-1.14,2.43
				L291.974,15.833z"/>
		</g>
		<g>
			<path d="M133.235,132.172l-2.739-0.442l-0.307-15.509l-2.739-0.442l-2.432,15.069l-2.739-0.442l5.303-32.878l5.477,0.885
				c1.495,0.241,2.698,0.988,3.603,2.239c0.903,1.251,1.231,2.626,0.99,4.125l-1.105,6.849c-0.237,1.236-0.651,2.248-1.245,3.031
				c-0.596,0.785-1.377,1.38-2.343,1.786L133.235,132.172z M133.811,111.182l1.105-6.849c0.124-0.768-0.035-1.458-0.477-2.074
				c-0.448-0.614-1.049-0.984-1.819-1.107l-2.739-0.442l-1.989,12.328l2.739,0.442c0.77,0.122,1.456-0.035,2.076-0.483
				C133.32,112.555,133.687,111.95,133.811,111.182z"/>
		</g>
		<g>
			<path d="M154.257,134.672l-11.025-1.271l3.814-33.083l11.025,1.271l-0.316,2.757l-8.268-0.953l-1.43,12.406l6.062,0.698
				l-0.318,2.757l-6.062-0.698l-1.43,12.406l8.268,0.953L154.257,134.672z"/>
		</g>
		<g>
			<path d="M175.521,130.66c-0.105,1.514-0.735,2.778-1.902,3.79c-1.164,1.012-2.504,1.467-4.014,1.362l-5.54-0.381l2.295-33.222
				l5.54,0.381c1.51,0.105,2.774,0.742,3.788,1.904c1.016,1.166,1.467,2.504,1.362,4.017L175.521,130.66z M172.752,130.467
				l1.529-22.147c0.054-0.777-0.168-1.449-0.664-2.021c-0.5-0.574-1.136-0.886-1.91-0.94l-2.768-0.191l-1.91,27.683l2.768,0.191
				c0.774,0.054,1.445-0.167,2.021-0.666C172.386,131.881,172.699,131.245,172.752,130.467z"/>
		</g>
		<g>
			<path d="M210.06,131.837c0.011,1.517-0.526,2.828-1.61,3.927c-1.084,1.099-2.383,1.652-3.901,1.664l-5.55,0.039l-0.237-33.301
				l5.55-0.039c1.517-0.011,2.828,0.527,3.927,1.608c1.095,1.088,1.651,2.387,1.662,3.905l0.048,6.936
				c0.015,1.665-0.607,3.057-1.854,4.177c1.266,1.101,1.902,2.485,1.913,4.151L210.06,131.837z M207.177,116.593l-0.048-6.936
				c-0.007-0.777-0.281-1.434-0.822-1.967c-0.54-0.529-1.199-0.794-1.976-0.788l-2.772,0.019l0.089,12.487l2.772-0.019
				c0.777-0.006,1.432-0.278,1.965-0.818C206.918,118.03,207.181,117.37,207.177,116.593z M207.284,131.855l-0.048-6.936
				c-0.007-0.777-0.278-1.434-0.818-1.967c-0.54-0.529-1.199-0.794-1.976-0.788l-2.776,0.019l0.089,12.487l2.772-0.019
				c0.777-0.006,1.432-0.278,1.965-0.818C207.025,133.293,207.292,132.633,207.284,131.855z"/>
		</g>
		<g>
			<path d="M233.298,135.98l-2.768,0.159l-1.865-8.229l-5.54,0.32l-0.907,8.388l-2.768,0.159l3.623-33.564l2.768-0.161
				L233.298,135.98z M228.062,125.164l-3.127-13.714l-1.528,13.982L228.062,125.164z"/>
		</g>
		<g>
			<path d="M254.512,133.747l-2.757,0.3l-7.927-21.471l2.406,22.073l-2.757,0.302l-3.608-33.105l2.757-0.302l7.927,21.471
				l-2.406-22.073l2.757-0.3L254.512,133.747z"/>
		</g>
		<g>
			<path d="M275.619,131.121l-2.742,0.431l-5.984-15.126l-1.025,6.288l1.532,9.704l-2.742,0.433l-5.196-32.894l2.742-0.433
				l2.372,15.022l3.109-15.888l2.739-0.431l-2.332,13.686L275.619,131.121z"/>
		</g>
		<g>
			<path d="M136.773,276.501l-2.741,0.433l-8.945-21.066l3.464,21.932l-2.742,0.433l-5.194-32.894l2.742-0.433l8.943,21.066
				l-3.462-21.932l2.739-0.433L136.773,276.501z"/>
		</g>
		<g>
			<path d="M147.63,274.865l-2.754,0.348l-0.346-2.754l2.754-0.348L147.63,274.865z"/>
		</g>
		<g>
			<path d="M167.008,267.559c0.141,1.514-0.283,2.865-1.268,4.053c-0.986,1.188-2.235,1.85-3.747,1.991
				c-1.51,0.137-2.859-0.281-4.045-1.269c-1.188-0.988-1.852-2.235-1.993-3.749l-0.255-2.757l2.765-0.255l0.255,2.757
				c0.072,0.777,0.398,1.406,0.983,1.891c0.583,0.485,1.262,0.688,2.036,0.614c0.775-0.07,1.405-0.392,1.889-0.981
				c0.485-0.581,0.69-1.262,0.618-2.039l-2.559-27.631l2.763-0.255L167.008,267.559z"/>
		</g>
		<g>
			<path d="M178.816,272.289l-2.605,2.935l-0.331-5.544l2.772-0.163L178.816,272.289z"/>
		</g>
		<g>
			<path d="M207.592,268.199c0,1.517-0.548,2.824-1.636,3.916c-1.095,1.092-2.398,1.636-3.916,1.636
				c-1.517,0-2.822-0.544-3.912-1.636c-1.092-1.092-1.638-2.398-1.638-3.916v-27.75h2.776v27.75c0,0.777,0.266,1.436,0.803,1.973
				c0.537,0.537,1.194,0.803,1.971,0.803s1.436-0.266,1.969-0.803c0.54-0.537,0.807-1.195,0.807-1.973v-27.75h2.776V268.199z"/>
		</g>
		<g>
			<path d="M221.363,271.737l-2.772-0.096l0.096-2.772l2.772,0.093L221.363,271.737z"/>
		</g>
		<g>
			<path d="M241.4,267.426c-0.107,1.514-0.736,2.776-1.902,3.786c-1.166,1.014-2.506,1.469-4.016,1.366
				c-1.514-0.107-2.779-0.744-3.79-1.906c-1.018-1.162-1.469-2.502-1.362-4.016l0.192-2.772l2.768,0.192l-0.192,2.772
				c-0.056,0.773,0.167,1.447,0.662,2.017c0.5,0.577,1.14,0.888,1.913,0.94c0.777,0.056,1.447-0.163,2.021-0.666
				c0.57-0.496,0.881-1.133,0.936-1.906l0.229-3.323l-6.628-13.479c-0.396-0.696-0.596-1.543-0.6-2.546l0.233-3.379
				c0.107-1.51,0.736-2.776,1.906-3.79c1.162-1.014,2.502-1.466,4.016-1.362c1.51,0.107,2.776,0.74,3.79,1.906
				c1.014,1.162,1.466,2.506,1.358,4.016l-0.192,2.768l-2.768-0.192l0.192-2.768c0.056-0.773-0.167-1.447-0.662-2.021
				c-0.5-0.57-1.132-0.885-1.91-0.94c-0.773-0.052-1.451,0.17-2.024,0.666c-0.57,0.5-0.881,1.136-0.936,1.91l-0.229,3.323
				l6.68,13.538c0.315,0.799,0.496,1.628,0.548,2.487L241.4,267.426z"/>
		</g>
		<g>
			<path d="M252.033,273.828l-2.761-0.289l0.289-2.761l2.761,0.289L252.033,273.828z"/>
		</g>
		<g>
			<path d="M274.265,276.534l-2.75-0.396l-0.178-8.442l-5.492-0.796l-2.565,8.042l-2.75-0.4l10.274-32.161l2.742,0.4
				L274.265,276.534z M271.293,264.887l-0.315-14.067l-4.293,13.398L271.293,264.887z"/>
		</g>
		<path d="M24.663,311.108l-7.084-9.819l2.409-1.74c0.612-0.392,1.238-0.696,1.882-0.907l22.632-5.562l2.948-2.121
			c0.685-0.507,1.101-1.159,1.229-1.976c0.135-0.822-0.048-1.566-0.544-2.258c-0.494-0.685-1.151-1.096-1.971-1.229
			c-0.812-0.126-1.567,0.052-2.25,0.544l-2.463,1.773l-1.763-2.454l2.454-1.78c1.34-0.958,2.846-1.306,4.502-1.051
			c1.664,0.274,2.979,1.073,3.949,2.435c0.968,1.325,1.316,2.835,1.048,4.5c-0.268,1.662-1.075,2.976-2.419,3.942l-2.752,1.987
			c-0.583,0.37-1.164,0.655-1.751,0.881l-22.911,5.692l5.313,7.376L24.663,311.108z"/>
		<polygon points="69.439,311.464 39.297,328.222 37.104,325.968 67.247,309.195 63.115,304.946 60.942,307.052 58.831,304.879 
			63.178,300.664 71.614,309.354 		"/>
		<polygon points="89.207,355.328 93.803,342.019 81.157,362.678 78.577,361.105 97.547,330.124 100.132,331.701 94.808,346.19 
			105.293,334.858 107.874,336.442 88.901,367.419 86.32,365.835 98.966,345.183 		"/>
		<path d="M119.658,375.513c-0.657,1.521-1.758,2.598-3.321,3.224c-1.564,0.637-3.107,0.614-4.625-0.03
			c-1.521-0.644-2.6-1.765-3.227-3.324c-0.631-1.55-0.618-3.109,0.035-4.622l9.513-22.272c0.655-1.514,1.762-2.587,3.322-3.227
			c1.564-0.629,3.103-0.611,4.628,0.041c1.519,0.651,2.593,1.751,3.224,3.313c0.623,1.562,0.614,3.109-0.033,4.626L119.658,375.513z
			 M116.873,374.332l9.511-22.276c0.337-0.777,0.348-1.547,0.043-2.317c-0.311-0.777-0.855-1.321-1.636-1.661
			c-0.777-0.329-1.553-0.344-2.319-0.03c-0.772,0.311-1.319,0.844-1.652,1.625l-9.514,22.284c-0.333,0.777-0.348,1.547-0.037,2.302
			c0.304,0.773,0.848,1.329,1.632,1.665c0.775,0.322,1.551,0.341,2.317,0.044C115.987,375.646,116.54,375.102,116.873,374.332z"/>
		<polygon points="147.306,390.453 144.377,389.691 144.692,364.724 138.529,388.141 135.6,387.374 144.847,352.245 
			147.771,353.018 147.462,377.974 153.626,354.558 156.551,355.328 		"/>
		<polygon points="173.544,384.258 172.046,370.265 169.383,394.332 166.37,394.01 170.373,357.896 173.376,358.218 
			174.721,373.599 179.397,358.895 182.405,359.221 178.411,395.331 175.404,394.995 178.062,370.92 		"/>
		<path d="M209.649,389.558c0.067,1.662-0.489,3.101-1.625,4.326c-1.155,1.243-2.554,1.88-4.204,1.939
			c-1.661,0.063-3.097-0.481-4.334-1.621c-1.231-1.144-1.88-2.561-1.936-4.208l-0.868-24.208c-0.057-1.643,0.487-3.083,1.634-4.323
			c1.147-1.232,2.546-1.884,4.201-1.947c1.654-0.055,3.098,0.496,4.326,1.647c1.236,1.144,1.884,2.539,1.943,4.204L209.649,389.558z
			 M206.622,389.665l-0.855-24.204c-0.041-0.847-0.352-1.558-0.966-2.106c-0.6-0.57-1.329-0.833-2.176-0.807
			c-0.847,0.03-1.547,0.344-2.113,0.966c-0.562,0.603-0.833,1.325-0.803,2.169l0.866,24.201c0.033,0.844,0.352,1.558,0.955,2.121
			c0.607,0.57,1.332,0.833,2.18,0.796c0.844-0.026,1.555-0.352,2.125-0.951C206.385,391.246,206.659,390.509,206.622,389.665z"/>
		<path d="M239.946,386.834c0.296,1.636-0.037,3.146-0.996,4.515c-0.955,1.392-2.25,2.236-3.882,2.535
			c-1.628,0.292-3.135-0.041-4.515-0.999c-1.392-0.944-2.228-2.258-2.517-3.878l-5.414-29.786l2.975-0.544l5.411,29.786
			c0.152,0.836,0.57,1.495,1.251,1.965c0.674,0.47,1.433,0.622,2.269,0.47c0.836-0.148,1.488-0.57,1.962-1.24
			c0.462-0.688,0.629-1.436,0.474-2.283l-5.403-29.782l2.979-0.544L239.946,386.834z"/>
		<polygon points="260.649,351.109 256.352,352.552 266.999,384.11 264.131,385.08 253.487,353.525 249.179,354.98 248.213,352.104 
			259.687,348.24 		"/>
		<polygon points="299.923,369.624 297.233,371.009 289.646,356.179 284.265,358.929 291.837,373.758 289.135,375.146 
			272.614,342.789 275.308,341.404 282.877,356.227 288.273,353.481 280.701,338.658 283.395,337.271 		"/>
		<path d="M339.946,333.166c1.096,1.251,1.591,2.694,1.491,4.378c-0.1,1.68-0.77,3.075-2.006,4.171
			c-1.247,1.095-2.698,1.61-4.386,1.499c-1.677-0.096-3.064-0.773-4.16-1.999l-2.006-2.269l2.258-2.017l2.009,2.269
			c0.567,0.644,1.255,0.973,2.084,1.021c0.829,0.052,1.555-0.196,2.195-0.77c0.626-0.566,0.966-1.266,1.011-2.091
			c0.063-0.822-0.2-1.547-0.755-2.183l-2.417-2.717l-15.555-5.129c-0.858-0.222-1.665-0.718-2.446-1.473l-2.454-2.768
			c-1.096-1.229-1.599-2.694-1.503-4.378c0.107-1.68,0.777-3.072,2.021-4.167c1.229-1.091,2.687-1.599,4.371-1.499
			c1.684,0.107,3.072,0.77,4.171,2.01l2.006,2.269l-2.269,2.017l-2.006-2.284c-0.563-0.625-1.255-0.966-2.08-1.007
			c-0.825-0.048-1.55,0.203-2.191,0.755c-0.633,0.57-0.977,1.258-1.029,2.087c-0.044,0.829,0.211,1.555,0.77,2.191l2.417,2.717
			l15.64,5.148c0.87,0.355,1.654,0.848,2.365,1.451L339.946,333.166z"/>
		<polygon points="339.805,293.118 336.87,296.589 362.348,318.044 360.401,320.361 334.931,298.91 332.004,302.378 
			329.679,300.435 337.492,291.168 		"/>
		<polygon points="378.229,296.297 376.586,298.829 374.043,297.193 375.693,294.646 		"/>
		<path d="M250.097,222.54l-5.833-0.829l-5.444-30.059h-5.3v29.141l-5.115-0.514l-0.185-65.196l11.27-0.598
			c2.983,0.475,5.847,1.791,7.924,3.873c2.087,2.084,2.002,6.554,2.002,9.453v13.242c-0.071,2.402-0.551,4.437-1.432,6.092
			c-0.888,1.654-2.176,3.024-3.875,4.082L250.097,222.54z M244.109,181.052V167.81c0-1.488-0.266-5.067-0.803-6.414
			c-0.233-0.592-1.373-1.91-2.85-1.91l-6.806-0.115l-0.129,26.984h5.3c1.477,0,2.735-0.518,3.756-1.536
			C243.598,183.787,244.109,182.536,244.109,181.052z"/>
		<path fill="none" stroke="#000000" d="M250.097,222.54l-5.833-0.829l-5.444-30.059h-5.3v29.141l-5.115-0.514l-0.185-65.196
			l11.27-0.598c2.983,0.475,5.847,1.791,7.924,3.873c2.087,2.084,2.002,6.554,2.002,9.453v13.242
			c-0.071,2.402-0.551,4.437-1.432,6.092c-0.888,1.654-2.176,3.024-3.875,4.082L250.097,222.54z M244.109,181.052V167.81
			c0-1.488-0.266-5.067-0.803-6.414c-0.233-0.592-1.373-1.91-2.85-1.91l-6.806-0.115l-0.129,26.984h5.3
			c1.477,0,2.735-0.518,3.756-1.536C243.598,183.787,244.109,182.536,244.109,181.052z"/>
		<path d="M207.566,208.851c0,2.953-0.996,5.499-2.983,7.613c-1.987,2.128-4.356,3.186-7.115,3.186c-2.759,0-5.128-1.058-7.11-3.186
			c-1.989-2.114-2.979-4.66-2.979-7.613v-43.198c0-2.946,0.99-5.488,2.979-7.613c1.982-2.12,4.35-3.185,7.11-3.185
			c2.759,0,5.128,1.064,7.115,3.185c1.987,2.125,2.983,4.667,2.983,7.613V208.851z M202.514,208.851v-43.198
			c0-1.51-0.489-2.79-1.466-3.83c-0.973-1.044-2.165-1.566-3.581-1.566c-1.41,0-2.609,0.522-3.579,1.566
			c-0.977,1.04-1.469,2.32-1.469,3.83v43.198c0,1.521,0.492,2.783,1.469,3.83c0.97,1.048,2.169,1.573,3.579,1.573
			c1.416,0,2.607-0.525,3.581-1.573C202.025,211.633,202.514,210.371,202.514,208.851z"/>
		<path fill="none" stroke="#000000" d="M207.566,208.851c0,2.953-0.996,5.499-2.983,7.613c-1.987,2.128-4.356,3.186-7.115,3.186
			c-2.759,0-5.128-1.058-7.11-3.186c-1.989-2.114-2.979-4.66-2.979-7.613v-43.198c0-2.946,0.99-5.488,2.979-7.613
			c1.982-2.12,4.35-3.185,7.11-3.185c2.759,0,5.128,1.064,7.115,3.185c1.987,2.125,2.983,4.667,2.983,7.613V208.851z
			 M202.514,208.851v-43.198c0-1.51-0.489-2.79-1.466-3.83c-0.973-1.044-2.165-1.566-3.581-1.566c-1.41,0-2.609,0.522-3.579,1.566
			c-0.977,1.04-1.469,2.32-1.469,3.83v43.198c0,1.521,0.492,2.783,1.469,3.83c0.97,1.048,2.169,1.573,3.579,1.573
			c1.416,0,2.607-0.525,3.581-1.573C202.025,211.633,202.514,210.371,202.514,208.851z"/>
		<polygon points="167.325,220.464 145.807,222.196 145.807,153.647 151.525,154.244 151.107,216.464 167.001,215.494 		"/>
		<polygon fill="none" stroke="#000000" points="167.325,220.464 145.807,222.196 145.807,153.647 151.525,154.244 151.107,216.464 
			167.001,215.494 		"/>
		<path d="M349.479,248.181l-7.82-3.342l-7.824-50.581h-7.816v45.685l-7.82-2.665v-99.48l15.637-5.007
			c4.275,0,7.953,0.861,11.033,3.936c3.072,3.077,4.611,18.061,4.611,22.336v19.545c-0.103,3.557-0.811,6.543-2.113,9.005
			c-1.295,2.45-3.201,4.459-5.707,6.029L349.479,248.181z M341.659,178.606v-19.545c0-2.189-0.896-13.312-2.409-14.828
			c-1.51-1.51-2.095-1.434-4.293-1.434l-8.938,1.791v41.851h7.816c2.191,0,4.049-0.752,5.563-2.276
			C340.9,182.659,341.659,180.805,341.659,178.606z"/>
		<path fill="none" stroke="#000000" d="M349.479,248.181l-7.82-3.342l-7.824-50.581h-7.816v45.685l-7.82-2.665v-99.48l15.637-5.007
			c4.275,0,7.953,0.861,11.033,3.936c3.072,3.077,4.611,18.061,4.611,22.336v19.545c-0.103,3.557-0.811,6.543-2.113,9.005
			c-1.295,2.45-3.201,4.459-5.707,6.029L349.479,248.181z M341.659,178.606v-19.545c0-2.189-0.896-13.312-2.409-14.828
			c-1.51-1.51-2.095-1.434-4.293-1.434l-8.938,1.791v41.851h7.816c2.191,0,4.049-0.752,5.563-2.276
			C340.9,182.659,341.659,180.805,341.659,178.606z"/>
		<polyline fill="#FFFFFF" points="-9.147,96.165 -13.209,93.391 -14.173,99.178 		"/>
		<polyline fill="#FFFFFF" points="-12.727,97.247 -13.209,93.391 -16.582,95.795 		"/>
		<polyline fill="#FFFFFF" points="-7.428,278.336 -11.721,281.193 -12.668,275.468 		"/>
	</g>
</g>
</svg>
