<?xml version="1.0" encoding="utf-8"?>
<!-- Generator: Adobe Illustrator 17.0.0, SVG Export Plug-In . SVG Version: 6.00 Build 0)  -->
<!DOCTYPE svg PUBLIC "-//W3C//DTD SVG 1.1//EN" "http://www.w3.org/Graphics/SVG/1.1/DTD/svg11.dtd">
<svg version="1.1" id="Layer_1" xmlns="http://www.w3.org/2000/svg" xmlns:xlink="http://www.w3.org/1999/xlink" x="0px" y="0px"
	 width="400.935px" height="371.042px" viewBox="0 0 400.935 371.042" enable-background="new 0 0 400.935 371.042"
	 xml:space="preserve">
<path d="M353.538,2.432c0.581-3.066,4.81-2.432,4.81,0c44.352,71.523,1.004,178.57-29.074,235.133
	c40.651-11.048,55.982-47.471,67.876-87.276c18.555,56.034-34.784,100.175-79.981,116.298
	c-23.048,31.982-35.365,74.695-60.633,104.298c-29.444-15.119-26.748-54.237-33.938-82.413
	c-12.581-49.374-44.986-87.858-75.118-116.403c26.167-10.678,39.171,35.788,53.286,36.422c18.872,0.846,21.568-42.343,55.77-36.422
	c3.753,11.418-36.317,29.022-43.612,46.096c14.167,33.568,32.563,62.695,38.748,104.192C278.42,277.212,327.9,209.653,319.6,135.804
	c-4.229-37.691-25.85-47.735-41.233-77.655c39.806,13.48,56.299,50.378,60.581,99.435C363.37,126.183,361.784,51.382,353.538,2.432z
	"/>
<path d="M48.045,0c0.529,47.048-7.824,115.558,14.537,152.773c11.947-41.444,20.246-86.536,65.497-94.624
	c-2.749,20.828-20.722,22.044-29.127,33.991c-47.206,67.241,22.097,174.447,50.907,225.459
	c13.269-23.207,16.176-56.616,31.559-77.655c26.378,17.127-4.123,56.087-9.727,82.413c-3.172,14.907,0.053,45.832-16.969,48.528
	c-17.656,2.802-29.656-32.458-36.369-46.149c-11.048-22.255-17.92-35.524-26.643-53.285c-36.158-13.956-61.479-38.695-82.413-67.876
	c-0.846-4.863,0.476-7.506,4.81-7.189C1.843,189.09-3.126,164.826,2.002,147.857c13.956,3.013,14.114,19.823,14.537,36.369
	c15.859,20.511,29.603,43.136,55.77,53.338C47.992,178.464-3.443,66.871,48.045,0z"/>
<g>
</g>
<g>
</g>
<g>
</g>
<g>
</g>
<g>
</g>
<g>
</g>
</svg>
